<svg version="1.1" viewBox="0 0 40 40" xmlns="http://www.w3.org/2000/svg" fill="currentColor">
	<path d="M4,5.8C4.8,4,7.1,4.3,8.8,4.2c8,0.1,16,0,24,0c1.4-0.1,2.9,0.5,3.3,2c0.4,3,0.1,6,0.2,8.9c-1-0.5-2.1-0.9-3.1-1.4 c-0.9-6-9.9-6.5-13.2-2.3C16.6,7.2,7.7,8,6.6,13.9c-0.7,0.3-2.2,0.8-2.9,1.1C3.8,12.1,3.4,8.9,4,5.8z M8.5,15.2L8.5,15.2 c8.1-1.8,16.7-1.8,24.8,0.5c3.8,1,6.5,4.3,6.7,8.2c-13.4-0.1-26.6,0-40-0.1C0.2,19.1,4.2,16,8.5,15.2z M0.1,26.4L0.1,26.4l39.8,0 c-0.1,3,0,6,0,9c-2,0.2-4,0.2-6,0.2v-4.9c-9.2,0-18.5,0.1-27.7,0C6,32.4,6,34.1,5.7,35.8C4,35.3,1.6,36.3,0.2,35 C-0.1,32.1,0.1,29.2,0.1,26.4 Z"/>
</svg>
