<svg version="1.1" viewBox="0 0 40 40" xmlns="http://www.w3.org/2000/svg" fill="currentColor">
	<path d="M11.7,39.3c-0.1-3.6-0.4-7.3-0.8-10.9H8.2l-2.3,7.3h0l-2.3-7.3H0.8C0.4,32,0.1,35.7,0,39.3h2c0-2.9,0.1-5.7,0.3-8.1h0 l2.4,8.1h1.8L9,31.2h0c0.2,2.2,0.4,5.2,0.4,8.1H11.7z M19.6,39.3v-1.7H16v-3.1h2.9v-1.6H16v-2.8h3.5v-1.7h-5.6v10.9H19.6z M29.6,39.3V28.5h-1.8v6.8l-3.6-6.8h-2.7v10.9h1.8v-7.7l4,7.7H29.6z M40.1,35.4c0,3-1.8,4.1-4.2,4.1c-2.6,0-3.9-1.1-3.9-3.9v-7.2 h2.2v7c0,1.9,0.6,2.5,1.9,2.5c1.2,0,1.9-0.6,1.9-2.4v-7.1h2.1V35.4z M0.6,0.5h38.9v3H0.6V0.5z M0.6,9.9h38.9v3H0.6V9.9z M0.6,19.3 h38.9v3H0.6V19.3 Z"/>
</svg>
