<svg version="1.1" viewBox="0 0 40 40" xmlns="http://www.w3.org/2000/svg" fill="currentColor">
	<path d="M28.3,20.8c-2.5,0.7-3,4.5-0.8,5.9c1.9,1.5,5-0.1,5.2-2.4c0.1-1.1-0.3-2.2-1.2-3C30.6,20.6,29.4,20.4,28.3,20.8z M9.7,20.7 c-2.4,0.5-3.4,4-1.4,5.6c1.7,1.7,5,0.7,5.5-1.7c0.3-1.1-0.1-2.3-0.9-3.1C12,20.7,10.8,20.4,9.7,20.7z M7.9,8.8 c-1.1,2.7-2.4,5.2-2.8,8.1c3.7,0.2,7.5,0,11.3,0.1c6.3-0.1,12.3,0.1,18.6-0.1c-0.6-2.6-1.7-4.8-2.6-7.3c-0.4-1-0.7-2-1.6-2.7 c-1.1-0.8-2.4-0.6-3.6-0.7C21.8,6.3,16.4,6.2,11,6.3C9.5,6.4,8.3,7.4,7.9,8.8L7.9,8.8z M6.6,7.2c1.2-1.8,3.2-2.8,5.3-2.7h16.2 c2.2-0.1,4.3,1.1,5.3,3c1.2,2.5,2.1,5.2,3.3,7.7c0.9,1.8,2.5,3.2,2.9,5.2c0.4,2.1,0.4,4.3-0.1,6.3c-0.5,1.8-2.6,2.6-3.3,4.3 c-0.3,1.3-0.1,2.6-0.4,3.8c-0.5,0.8-1.7,0.6-2.5,0.7c-1.1-0.1-2.3,0.1-3.4-0.3c-0.7-1.2-0.5-3.6-2.4-3.5c-3.6-0.1-7.3,0-11-0.1 c-1.7-0.1-3.4,0-5.2,0.2c-1,0.9-0.9,2.5-1.9,3.4c-1.9,0.5-3.9,0.3-5.7-0.5c-0.1-1.5,0.4-3.4-0.8-4.7C2,28.8,0.5,27.8,0.3,26 c-0.4-2.7-0.4-5.9,1.3-8.2C4,14.6,4.8,10.7,6.6,7.2 Z"/>
</svg>
