<svg version="1.1" viewBox="0 0 40 40" xmlns="http://www.w3.org/2000/svg" fill="currentColor">
	<path d="M12,26.9c0.1,0.1,0.3,0.2,0.5,0.1h11c0.2,0,0.4-0.1,0.5-0.2c0.2-0.1,0.2-0.3,0.2-0.5s-0.1-0.3-0.2-0.5 c-0.2-0.1-0.3-0.2-0.5-0.2h-11c-0.2,0-0.4,0.1-0.5,0.2c-0.1,0.1-0.2,0.3-0.2,0.5C11.8,26.6,11.9,26.8,12,26.9L12,26.9z M4.4,26.9 C4.6,27,4.8,27,5,27h3.8C9,27,9.2,27,9.3,26.8c0.2-0.1,0.2-0.3,0.2-0.5S9.5,26,9.3,25.9c-0.2-0.1-0.3-0.2-0.5-0.2H4.9 c-0.2,0-0.4,0.1-0.5,0.2c-0.1,0.1-0.2,0.3-0.2,0.5C4.2,26.6,4.3,26.8,4.4,26.9L4.4,26.9z M0,17.3h40v13.2c0,0.8-0.3,1.5-0.8,2 c-0.5,0.5-1.1,0.8-1.9,0.8H2.7c-0.8,0-1.5-0.3-2-0.8c-0.5-0.5-0.8-1.2-0.8-2V17.3z M39.1,7.5c0.5,0.5,0.8,1.1,0.8,1.9v1.7H0V9.5 C0,8.7,0.3,8,0.8,7.5c0.5-0.5,1.2-0.8,2-0.8h34.5C38,6.8,38.6,7,39.1,7.5L39.1,7.5 Z"/>
</svg>
