<svg version="1.1" viewBox="0 0 40 40" xmlns="http://www.w3.org/2000/svg">
	<style type="text/css">
		.st0{fill:#FCEEA2;}
		.st1{fill:#EAD45A;}
		.st2{fill:#6A4300;}
	</style>
	<path class="st0" d="M20,0.5c10.7,0,19.5,8.7,19.5,19.5S30.7,39.5,20,39.5S0.5,30.7,0.5,20S9.3,0.5,20,0.5z"/>
	<path class="st1" d="M20,40C9,40,0,31,0,20C0,9,9,0,20,0c11,0,20,9,20,20C40,31,31,40,20,40z M20,1.1C9.6,1.1,1.1,9.6,1.1,20 S9.6,38.9,20,38.9S38.9,30.4,38.9,20S30.4,1.1,20,1.1z"/>
	<path class="st2" d="M15.6,13.5l4.3,4.3l4.3-4.3c0.4-0.4,1.1-0.4,1.5,0l0.6,0.6c0.4,0.4,0.4,1.1,0,1.5L22,19.9l4.3,4.3 c0.4,0.4,0.4,1.1,0,1.5l-0.6,0.6c-0.4,0.4-1.1,0.4-1.5,0L19.9,22l-4.3,4.3c-0.4,0.4-1.1,0.4-1.5,0l-0.6-0.6c-0.4-0.4-0.4-1.1,0-1.5 l4.3-4.3l-4.3-4.3c-0.4-0.4-0.4-1.1,0-1.5l0.6-0.6C14.6,13.1,15.2,13.1,15.6,13.5z"/>
</svg>
