<svg preserveAspectRatio="xMinYMid slice" version="1.1" viewBox="0 0 350 63" xmlns="http://www.w3.org/2000/svg">
    <title>Compare the Market™ logo</title>
    <g>
        <path fill="#fff" d="M137.1 40.8c-.6 0-1.2 0-1.9-.1v3.2h-4.5V22.8h3.7l.4 1.8c1.4-1.3 3.1-2.2 4.9-2.2 4.2 0 6.3 3.8 6.3 8.5-.1 7-3.8 9.9-8.9 9.9m1.3-14.9c-.8 0-2 .5-3.1 1.5v9.8c.6.2 1.3.4 2.1.4 2.3 0 3.9-1.9 3.9-6 0-3.7-1.1-5.7-2.9-5.7M77.6 41.3c-4.7 0-7.2-3-7.2-9.1 0-5.7 3-9.6 7.7-9.6 2.2 0 3.9.8 5.2 2.3l-1.6 2.4c-.8-.8-1.9-1.2-3-1.2-2.1 0-3.5 1.9-3.5 5.7 0 4.4 1.2 6.1 3.3 6.1 1.4 0 2.6-.5 3.8-1.5l1.4 2.4a8.8 8.8 0 0 1-6.1 2.5M92.1 41.3c-5 0-7.9-2.4-7.9-9s3.3-9.8 8.7-9.8c5 0 7.9 2.4 7.9 9 0 6.7-3.3 9.8-8.7 9.8m.4-15.4c-2.1 0-3.5 1.5-3.5 5.6 0 5.1 1.3 6.4 3.6 6.4 2.1 0 3.5-1.5 3.5-5.6 0-5.1-1.3-6.4-3.6-6.4M127.9 40.9h-4.6c0-3.6.1-7.3.1-9.4 0-4.3-.8-5.3-2.3-5.3-.9 0-2.2.7-3.4 1.6.1.6.2 1.4.2 2.7v10.4h-4.6v-9.4c0-4.2-.8-5.3-2.3-5.3-.9 0-2 .6-3.2 1.5v13.2H103v-18h3.8l.3 1.9c1.4-1.3 3.3-2.3 5.3-2.3 2.2 0 3.7 1.1 4.4 2.6 1.7-1.5 3.6-2.6 5.8-2.6 3.5 0 5.4 2.3 5.4 8.1 0 2.2-.1 6.3-.1 10.3M158.9 40.9l-.3-1.8a8.05 8.05 0 0 1-5.5 2.2c-3.6 0-5.6-1.8-5.6-5.1 0-3.7 3-6.2 9.3-6.2h1.1v-1.4c0-1.8-1-2.7-3.3-2.7-1.9 0-3.8.5-5.5 1.1l-.6-2.8c2.1-.9 4.6-1.6 7.3-1.6 4.6 0 6.7 2.2 6.7 5.6V41h-3.6zm-1-8.2h-1.4c-3.5 0-4.5 1.2-4.5 2.8 0 1.5.8 2.4 2.4 2.4 1.1 0 2.3-.6 3.5-1.6v-3.6zM175.4 27c-.5-.2-1-.2-1.6-.3-1 0-1.9.7-3.5 2.7v11.4h-4.6v-18h3.8l.4 2.8c1.8-2.4 3.1-3.2 4.3-3.2.6 0 1.2.1 1.8.4l-.6 4.2zM180.6 32.8v.3c0 3.3 1.5 4.7 4 4.7 1.6 0 3.7-.3 5.9-1l.7 2.7c-2.2 1.2-4.8 1.9-7.4 1.9-4.7 0-7.8-2.3-7.8-8.9 0-6.4 3.1-9.9 8.2-9.9 4.6 0 7.7 2.6 7.2 10.3l-10.8-.1zm6.2-2.9c0-2.9-1-4.3-2.9-4.3-2 0-3.1 1.8-3.2 4.3h6.1zM263.7 40.9h-4.6c0-3.6.1-7.3.1-9.4 0-4.3-.8-5.3-2.3-5.3-.9 0-2.2.7-3.4 1.6.1.6.2 1.4.2 2.7v10.4H249v-9.4c0-4.2-.8-5.3-2.3-5.3-.9 0-2 .6-3.2 1.5v13.2h-4.6v-18h3.8l.3 1.9c1.4-1.3 3.3-2.3 5.3-2.3 2.2 0 3.7 1.1 4.4 2.6 1.7-1.5 3.6-2.6 5.8-2.6 3.5 0 5.4 2.3 5.4 8.1-.1 2.2-.2 6.3-.2 10.3M277.3 40.9l-.3-1.8a8.05 8.05 0 0 1-5.5 2.2c-3.6 0-5.6-1.8-5.6-5.1 0-3.7 3-6.2 9.3-6.2h1.1v-1.4c0-1.8-1-2.7-3.3-2.7-1.9 0-3.8.5-5.5 1.1l-.6-2.8c2.1-.9 4.6-1.6 7.3-1.6 4.6 0 6.7 2.2 6.7 5.6V41h-3.6zm-1-8.2h-1.4c-3.5 0-4.5 1.2-4.5 2.8 0 1.5.8 2.4 2.4 2.4 1.1 0 2.3-.6 3.4-1.6v-3.6zM294.2 27c-.5-.2-1-.2-1.6-.3-1 0-1.9.7-3.5 2.7v11.4h-4.6v-18h3.8l.4 2.8c1.8-2.4 3.1-3.2 4.3-3.2.6 0 1.2.1 1.8.4l-.6 4.2zM306 40.9l-4.9-8.9v8.9h-4.6v-21h4.6v9.9l4.2-6.9h5.4l-5.4 7.5 6.1 10.5zM316.1 32.8v.3c0 3.3 1.5 4.7 4 4.7 1.6 0 3.7-.3 5.9-1l.7 2.7c-2.2 1.1-4.8 1.9-7.4 1.9-4.7 0-7.8-2.3-7.8-8.9 0-6.4 3.1-9.9 8.2-9.9 4.6 0 7.7 2.6 7.2 10.3l-10.8-.1zm6.1-2.9c0-2.9-1-4.3-2.9-4.3-2 0-3.1 1.8-3.2 4.3h6.1zM334.5 41.3c-3.3 0-4.6-1.3-4.6-4.7V26.1h-2.3v-3.2h2.4c.4-1 .8-2 1.1-3h3.3v3h4v3.2h-4v9.3c0 1.8.4 2.4 1.7 2.4.5 0 1.3-.1 2.4-.4l.4 2.7c-1.6.8-3 1.2-4.4 1.2M199.6 41.1c-3 0-4.1-1.3-4.1-4.7V25.3h-2.8v-2.1h2.9c.3-1.6.5-1.4.7-3.3h2v3.3h4.7v2.1h-4.7v10.4c0 2.4.4 3.3 2.1 3.3.6 0 1.4-.1 2.7-.6l.4 1.7c-1.4.7-2.7 1-3.9 1M219.4 40.9h-2.8c0-3.3.1-7.2.1-9.4 0-4.7-1.2-6.3-3.4-6.3-1.2 0-2.8.7-4.3 2.1v13.6h-2.8v-21h2.8v5.2c1.5-1.2 3.2-2.2 5.3-2.2 3.2 0 5.2 2 5.2 7.8 0 2.2-.1 6.5-.1 10.2M224.9 32.4v.4c0 4.4 1.7 6.2 4.9 6.2 1.8 0 3.5-.4 5.2-1.1l.5 1.7c-2 1-4.2 1.6-6.4 1.6-4.3 0-7.1-2.3-7.1-8.6 0-6.2 2.7-9.7 7.2-9.7 4.2 0 6.7 2.7 6.3 9.5h-10.6zm7.9-2.1c0-3.4-1.2-5.4-3.7-5.4-2.6 0-4 2.5-4.1 5.6h7.9v-.2zM342.2 23.4v4.4h-.6v-4.4h-1.3v-.5h3.1v.5zM348.4 27.8c0-1.5-.1-3.1-.3-4.1l-1.4 4.1h-.5l-1.4-4.1c-.1 1.1-.2 2.6-.2 4.1h-.6c0-1.6.2-3.2.4-4.8h.8l1.3 3.8 1.3-3.8h.7c.2 1.6.3 3.3.4 4.8h-.5z" class="st0" />
        <linearGradient id="i" x1="15.01" x2="48.53" y1="5.69" y2="57.31" gradientUnits="userSpaceOnUse">
            <stop offset="0" stop-color="#D6D6D6" />
            <stop offset=".03" stop-color="#E0E0E0" />
            <stop offset=".09" stop-color="#ECEBEB" />
            <stop offset=".15" stop-color="#EFEFEF" />
            <stop offset=".64" stop-color="#EFEFEF" />
            <stop offset=".73" stop-color="#EFEFEF" />
            <stop offset=".79" stop-color="#EAEAEA" />
            <stop offset=".88" stop-color="#DADADA" />
            <stop offset=".98" stop-color="#C1C1C1" />
            <stop offset="1" stop-color="#BABABA" />
        </linearGradient>
        <circle cx="31.8" cy="31.5" r="30.8" fill="url(#i)" />
        <linearGradient id="h" x1="15.64" x2="59.18" y1="53.38" y2="59.81" gradientUnits="userSpaceOnUse">
            <stop offset=".1" stop-color="#641724" />
            <stop offset=".21" stop-color="#711825" />
            <stop offset=".42" stop-color="#931B26" />
            <stop offset=".58" stop-color="#B31E28" />
            <stop offset="1" stop-color="#D2202F" />
        </linearGradient>
        <path fill="url(#h)" d="M18.5 47c-.1 3.7-.9 7.4-2.3 11.1 4.6 2.7 9.9 4.2 15.6 4.2 4.3 0 8.4-.9 12.2-2.5A42.7 42.7 0 0 0 18.5 47z" />
        <linearGradient id="g" x1="15.36" x2="53.69" y1="-22.34" y2="-22.34" gradientTransform="rotate(8.42 -492.73 30.69)" gradientUnits="userSpaceOnUse">
            <stop offset=".08" stop-color="#321724" />
            <stop offset=".19" stop-color="#381724" stop-opacity=".88" />
            <stop offset=".35" stop-color="#4B1826" stop-opacity=".71" />
            <stop offset=".53" stop-color="#681A28" stop-opacity=".51" />
            <stop offset=".74" stop-color="#921D2B" stop-opacity=".29" />
            <stop offset=".95" stop-color="#C6202E" stop-opacity=".05" />
            <stop offset="1" stop-color="#D2202F" stop-opacity="0" />
        </linearGradient>
        <path fill="url(#g)" d="M18.5 47c-.1 1.9-.3 3.8-.7 5.7 8 .6 15.2 3.8 20.8 8.8 1.8-.4 3.6-1 5.3-1.7-6-6.4-14.9-11.5-25.4-12.8z" opacity=".55" />
        <linearGradient id="f" x1="23.67" x2="23.67" y1="3.24" y2="-19.43" gradientTransform="rotate(8.42 -492.73 30.69)" gradientUnits="userSpaceOnUse">
            <stop offset="0" stop-color="#95191D" stop-opacity="0" />
            <stop offset="1" stop-color="#4A191D" />
        </linearGradient>
        <path fill="url(#f)" d="M18.4 59.2c3.9 1.9 8.3 3 12.9 3-2.9-5.3-7.9-7.7-12.9-3z" />
        <linearGradient id="e" x1="30.83" x2="51.55" y1="51.75" y2="51.75" gradientUnits="userSpaceOnUse">
            <stop offset="0" stop-color="#B59F2C" />
            <stop offset=".87" stop-color="#F0EEC5" />
        </linearGradient>
        <path fill="url(#e)" d="M38.7 43.9c-2.9-.6-5.8.1-7.8 1.2C35 47 33.7 49 35 52.7c3.4 2 6.4 4.5 8.9 7.1 1.8-.8 3.6-1.7 5.2-2.8-2.9-9.1-6.7-12.4-10.4-13.1z" />
        <linearGradient id="d" x1="20.71" x2="34.23" y1="50.32" y2="44.02" gradientUnits="userSpaceOnUse">
            <stop offset="0" stop-color="#B59F2C" />
            <stop offset=".87" stop-color="#F0EEC5" />
        </linearGradient>
        <path fill="url(#d)" d="M30.8 45.1c-5.7-2.4-12.7-2.7-12.7-2.6.2 1.7.3 2.8.3 4.5 5.5.7 10.6 2.4 15 4.8l1.5.9c-1.2-3.7.1-5.7-4.1-7.6z" />
        <linearGradient id="c" x1="15.42" x2="50.2" y1="39.43" y2="13.22" gradientUnits="userSpaceOnUse">
            <stop offset="0" stop-color="#25130E" />
            <stop offset=".02" stop-color="#2A1711" />
            <stop offset=".46" stop-color="#AC8864" />
            <stop offset=".66" stop-color="#E0B585" />
            <stop offset=".8" stop-color="#E9C08F" />
            <stop offset="1" stop-color="#FBD6A4" />
        </linearGradient>
        <path fill="url(#c)" d="M47 14.9s-2.5.3-3.6.3c-1.9.1-3.5.2-4 0-2.8-.5-5.1-3.3-5.8-4.7-.1-.2-.2-.2-.4-.2-.3.1-.7.3-1.4.6h-.1c-.5.2-1.1.4-1.8.6-2.9.9-5.9 1-9.9 3.1-4 2-7 5-8.4 8.5-2.7 6.8.4 11.8 4.1 15 1.3 1.2 2.2 2.7 2.6 4.5 0-.1 7 .2 12.6 2.6 2-1.1 4.8-1.7 7.7-1.2-1.6-3-.2-5 .2-5.7.5-.9.7-1.1 1.4-1.8-.2-.1-.6-.1-.7-.4 0 0 1.8-1.6 2.9-3.4v-.1l1.8-4c2.9-2.7 4.7-4.8 5.3-6.7 3.1-.7 3.7-7.9-2.5-7z" />
        <linearGradient id="b" x1="38.52" x2="7.69" y1="26.99" y2="42.28" gradientUnits="userSpaceOnUse">
            <stop offset="0" stop-color="#E0B585" stop-opacity="0" />
            <stop offset=".1" stop-color="#B38F68" stop-opacity=".13" />
            <stop offset=".22" stop-color="#89694D" stop-opacity=".27" />
            <stop offset=".34" stop-color="#654B36" stop-opacity=".41" />
            <stop offset=".45" stop-color="#493325" stop-opacity=".56" />
            <stop offset=".57" stop-color="#362218" stop-opacity=".7" />
            <stop offset=".69" stop-color="#2A1710" stop-opacity=".85" />
            <stop offset=".81" stop-color="#26140E" />
            <stop offset="1" stop-color="#25130E" />
        </linearGradient>
        <path fill="url(#b)" d="M42.6 32.5c-1 1.8-2.8 3.4-3 3.6.1.3.5.3.7.4-.7.7-.9.9-1.4 1.8-.5.7-1.9 2.7-.4 5.6h-1.4c-1-.1-1.9 0-2.8.1-.2 0-.3.1-.5.1-.5.1-1 .2-1.4.4-.2.1-.5.2-.7.3-.1 0-.2.1-.3.1s-.2.1-.3.2c-.1-.1-.2-.1-.3 0-.1-.1-.3-.1-.4-.2h-.1c-.1-.1-.3-.1-.4-.2h-.1c-.1 0-.2-.1-.3-.1s-.1 0-.2-.1c-.1 0-.3-.1-.4-.1-.2-.1-.3-.1-.5-.2h-.1l-.9-.3h-.1c-.1 0-.3-.1-.4-.1s-.3-.1-.4-.1c-.2 0-.3-.1-.5-.1h-.1c-.1 0-.3-.1-.4-.1-.2 0-.3-.1-.5-.1l-1.3-.3h-.1c-.1 0-.3 0-.4-.1-.1 0-.2 0-.4-.1h-1.7c-.2 0-.3 0-.5-.1H18.3c0-.1 0-.2-.1-.2 0-.1-.1-.2-.1-.3-.1-.2-.1-.4-.2-.6-.1-.3-.3-.6-.4-.9l-.1-.1-.1-.1c-.1-.1-.1-.1-.1-.2-.1-.2-.2-.3-.3-.4s-.1-.2-.2-.2c-.2-.2-.3-.4-.5-.6l-.3-.3-.4-.4-.4-.4-.4-.4-.4-.4-.4-.4-.3-.3c-1.5-1.8-2.6-4-2.9-6.5-.2-1.6 0-3.4.6-5.4 0-.1.1-.2.1-.4-1 10.1 5.4 12 11.9 11.3-.4.4-.9.8-1.3 1.1v.1c1.8.3 3.5-.5 5.1-1.2-.3.5-.7.9-1.1 1.3v.1c2.4 0 4.4-1.5 6.2-2.9-.1.3-.2.5-.3.8 0 .1 0 .1.1.1 1.7-.5 3-1.6 4.1-3 1-1.5 3.1-1.7 4.5-.6l2 1.1z" />
        <linearGradient id="a" x1="14.15" x2="24.3" y1="23.7" y2="25.27" gradientUnits="userSpaceOnUse">
            <stop offset=".07" stop-color="#25130E" />
            <stop offset=".33" stop-color="#351C13" stop-opacity=".78" />
            <stop offset=".79" stop-color="#5A321E" stop-opacity=".4" />
        </linearGradient>
        <path fill="url(#a)" d="M19.3 26.6c-.6-.7-.9-1.7-.8-2.7-.3.2-.6.3-.9.5 0 0-.1 0-.1-.1.1-.9.5-1.7.8-2.5l-1.2.3c-.1 0-.1 0-.1-.1 1-1.5 2.6-2.4 4.2-3v-.1c.1-.2.1-.4.1-.5-.5-1.8-4.2-.3-6 1.8-1.7 2-2.1 4.6-1.6 6.8.5 2.3 2 4.1 4.2 4.3.5 0 1 0 1.5-.1h.1c.3-.1.7-.2 1-.4 1-.5 1.6-1.7 1.3-3-.9-.3-1.9-.4-2.5-1.2z" />
        <linearGradient id="o" x1="40.42" x2="51.56" y1="21.97" y2="17.28" gradientUnits="userSpaceOnUse">
            <stop offset=".21" stop-color="#E0B585" stop-opacity=".2" />
            <stop offset=".23" stop-color="#DDB283" stop-opacity=".22" />
            <stop offset=".47" stop-color="#AC8461" stop-opacity=".46" />
            <stop offset=".68" stop-color="#886249" stop-opacity=".67" />
            <stop offset=".85" stop-color="#724E3A" stop-opacity=".85" />
            <stop offset=".96" stop-color="#6A4634" stop-opacity=".96" />
        </linearGradient>
        <path fill="url(#o)" d="M51.8 18.3v-.8c-.1-.3-.2-.5-.3-.8-.1-.2-.2-.3-.3-.4-.1-.2-.2-.2-.2-.3s-.1-.1-.1-.2c-.1-.1-.2-.2-.4-.3-.1-.1-.2-.1-.3-.2-.7-.4-1.8-.6-3.1-.4 0 0-2.5.3-3.6.3-1.5.1-2.9.1-3.6.1h-.4c3.6 1.1-2.3 10.4 6.9 11.4 1.2-1.2 2-2.3 2.6-3.3.1-.1.1-.2.2-.3 0-.1.1-.2.1-.2 0-.1.1-.2.1-.2 0-.1.1-.1.1-.2v-.1c0-.1.1-.2.1-.2h.2c.1 0 .2-.1.3-.1l.1-.1s.1 0 .1-.1c.1-.1.2-.2.3-.2.4-.4.8-1 1-1.6.1-.8.2-1.3.2-1.8z" opacity=".71" />
        <linearGradient id="n" x1="25.79" x2="40.02" y1="16.03" y2="16.03" gradientUnits="userSpaceOnUse">
            <stop offset="0" stop-color="#5A321E" stop-opacity=".1" />
            <stop offset=".2" stop-color="#4D2A19" stop-opacity=".34" />
            <stop offset=".49" stop-color="#412315" stop-opacity=".66" />
            <stop offset=".78" stop-color="#3D2114" />
        </linearGradient>
        <path fill="url(#n)" d="M26.8 15.7c.2 0 .5 0 .7-.1.1 0 .1 0 .1.1-.6 1.3-1.2 2.6-1 4.1.1.6.3 1.2.6 1.7.1.1.1.2.2.2 1.1-4.9 10.3-1.9 11.9-6.6-2.8-.5-5.1-3.3-5.8-4.7-.1-.2-.2-.2-.4-.2-.3.1-.7.3-1.4.6h-.1c-.2.1-.4.1-.6.2-1.7 1.1-3.2 2.8-4.2 4.7z" opacity=".83" />
        <linearGradient id="m" x1="30.45" x2="36.56" y1="16.9" y2="16.9" gradientUnits="userSpaceOnUse">
            <stop offset="0" stop-color="#5A321E" stop-opacity=".1" />
            <stop offset=".3" stop-color="#452618" stop-opacity=".28" />
            <stop offset=".73" stop-color="#2E1810" stop-opacity=".54" />
            <stop offset="1" stop-color="#25130E" stop-opacity=".7" />
        </linearGradient>
        <path fill="url(#m)" d="M33.9 14.8c-1.7.2-2.4 3.5-3.5 4.2 1.9-.6 4.2-.7 6.1-1.3.3-2.2-1.1-3.1-2.6-2.9z" />
        <linearGradient id="l" x1="32.51" x2="35.76" y1="17.48" y2="17.48" gradientUnits="userSpaceOnUse">
            <stop offset="0" stop-color="#25130E" stop-opacity=".2" />
            <stop offset="1" stop-color="#25130E" />
        </linearGradient>
        <path fill="url(#l)" d="M34.4 16.4c-.9.1-1.4 1.7-1.9 2.1 1.1-.2 2.2-.4 3.2-.6.2-1-.5-1.5-1.3-1.5z" />
        <radialGradient id="k" cx="48.89" cy="19.18" r="16.41" gradientTransform="matrix(.9816 -.191 .1382 .7102 -1.75 14.9)" gradientUnits="userSpaceOnUse">
            <stop offset=".39" stop-color="#47210E" />
            <stop offset=".53" stop-color="#4A2410" stop-opacity=".76" />
            <stop offset=".63" stop-color="#532C17" stop-opacity=".6" />
            <stop offset=".71" stop-color="#623B23" stop-opacity=".46" />
            <stop offset=".79" stop-color="#785034" stop-opacity=".34" />
            <stop offset=".86" stop-color="#936B49" stop-opacity=".22" />
            <stop offset=".93" stop-color="#B68C64" stop-opacity=".11" />
            <stop offset="1" stop-color="#DDB383" stop-opacity=".01" />
            <stop offset="1" stop-color="#E0B585" stop-opacity="0" />
        </radialGradient>
        <path fill="url(#k)" d="M41.6 32.1c.5.2 1.1 0 1.4-.5 0-.1.1-.1.1-.2l.3-.6c.5-1.2.9-2.1.9-2.1 2.9-2.7 4.7-4.8 5.3-6.7-6.2 3.9-11.9-.1-15.4 2.4l-.5.5c-1.3 1.3-.9 3.5.8 4.2l7.1 3z" opacity=".8" />
        <linearGradient id="j" x1="47.3" x2="52.05" y1="18.29" y2="15.64" gradientUnits="userSpaceOnUse">
            <stop offset=".14" stop-color="#5A321E" stop-opacity=".3" />
            <stop offset=".23" stop-color="#532E1C" stop-opacity=".37" />
            <stop offset=".73" stop-color="#311A12" stop-opacity=".71" />
            <stop offset="1" stop-color="#25130E" stop-opacity=".9" />
        </linearGradient>
        <path fill="url(#j)" d="M47.2 14.8c-.1.2-.2.4-.2.6.2.2.4.3.6.3.3.1.4.2.5.4s.1.3.2.5c0 .1.1.1.1.2 1.5.5 3.6.7 3.3 2.4.5-2.1-.7-4.8-4.5-4.4z" />
    </g>
</svg>
