<svg version="1.1" viewBox="0 0 40 40" xmlns="http://www.w3.org/2000/svg" fill="currentColor">
    <path d="M7.78947368,13.5411864 C8.10947368,12.5373946 8.69642105,12.3259603 9.54989474,12.8543376 C10.7755789,16.0788153 12.0025263,19.3003738 13.8164211,22.2592032 C11.2555789,19.8812969 8.32168421,17.1868646 7.78947368,13.5411864 Z M32.5402105,11.6920743 C33.3936842,12.3789231 35.4206316,12.6429033 34.7806316,14.1754893 C34.2471579,15.7602042 32.4867368,16.5525616 31.2597895,17.6626961 C31.6332632,15.6546955 32.0602105,13.647112 32.5402105,11.6920743 Z M5.01431579,10.1599053 C5.28084211,14.5453951 6.29473684,19.3533366 9.81431579,22.3647119 C13.8143158,26.0103901 20.1098947,26.6972389 24.9107368,24.2138239 C27.4181053,22.945635 29.0181053,20.3567113 31.6854737,19.3003738 C34.3541053,18.0851477 37.7145263,15.7076584 36.7545263,12.3255433 C35.9541053,10.0014338 32.9684211,9.94847098 30.8867368,9.94847098 C22.2446316,10.1069425 13.6029474,9.73703666 5.01431579,10.1599053 Z M0,27.3840876 C1.54694737,29.444634 3.89431579,30.976803 6.56126316,30.7653687 C15.8433684,30.7653687 25.1250526,30.8708774 34.3536842,30.7124059 C36.7536842,30.7653687 38.6210526,29.1802368 39.9536842,27.3836706 C26.6717193,27.278301 13.3538246,27.27844 0,27.3840876 Z"/>
</svg>
