<svg version="1.1" viewBox="0 0 40 40" xmlns="http://www.w3.org/2000/svg" fill="currentColor">
	<path d="M30.6,19.8l8.8-8.7c0.2-0.2,0.3-0.2,0.4-0.2c0.1,0.1,0.2,0.2,0.2,0.4v18.2c0,0.2-0.1,0.4-0.2,0.4c-0.1,0.1-0.3,0-0.4-0.2 L30.6,21c-0.2-0.2-0.3-0.4-0.3-0.6C30.3,20.2,30.4,20,30.6,19.8 M27.3,24.3l12.1,12c0.2,0.2,0.2,0.3,0.2,0.4 c-0.1,0.1-0.2,0.2-0.4,0.2H0.8c-0.2,0-0.4-0.1-0.4-0.2c-0.1-0.1,0-0.3,0.2-0.4l12.1-12c0.2-0.2,0.4-0.3,0.6-0.3 c0.2,0,0.4,0.1,0.6,0.3l5.5,5.4c0.2,0.2,0.4,0.3,0.6,0.3c0.2,0,0.4-0.1,0.6-0.3l5.5-5.4c0.2-0.2,0.4-0.3,0.6-0.3 C26.9,24.1,27.1,24.1,27.3,24.3 M0.8,3.9h38.3c0.2,0,0.4,0.1,0.4,0.2c0.1,0.1,0,0.3-0.2,0.4L20.6,23.2c-0.2,0.2-0.4,0.3-0.6,0.3 c-0.2,0-0.4-0.1-0.6-0.3L0.6,4.5C0.4,4.3,0.4,4.1,0.4,4C0.5,3.9,0.6,3.9,0.8,3.9 M0.6,11.1l8.8,8.7c0.2,0.2,0.3,0.4,0.3,0.6 c0,0.2-0.1,0.4-0.3,0.6l-8.8,8.7c-0.2,0.2-0.3,0.2-0.4,0.2C0.1,29.9,0,29.7,0,29.5V11.3c0-0.2,0.1-0.4,0.2-0.4 C0.3,10.8,0.4,10.9,0.6,11.1 Z"/>
</svg>
