<svg version="1.1" viewBox="0 0 40 40" xmlns="http://www.w3.org/2000/svg">
	<style type="text/css">
		.st0{fill:#ced4e0;}
		.st1{fill:#072760;}
	</style>
	<path class="st0" d="M19.9,14.7c-0.9,0-1.8,0.4-2.4,1V2.4c0-1.3,1-2.4,2.4-2.4c1.3,0,2.4,1,2.4,2.4v13.3 C21.7,15.1,20.9,14.7,19.9,14.7z M11.3,26.8V2.4C11.3,1,10.2,0,8.9,0C7.5,0,6.5,1.1,6.5,2.4v24.4c0.6-0.6,1.4-0.9,2.4-0.9 C9.9,25.9,10.7,26.3,11.3,26.8z M31.3,20c0.8,0,1.5,0.3,2.1,0.7V2.4C33.4,1,32.3,0,31,0c-1.4,0-2.4,1.1-2.4,2.4v18.8 C29.2,20.5,30.2,20,31.3,20z"/>
	<path class="st1" d="M12,28.4c0,0.6-0.3,1.1-0.7,1.5v7.7c0,1.3-1,2.4-2.4,2.4c-1.4,0-2.4-1-2.4-2.4v-7.7c-0.4-0.4-0.7-1-0.7-1.5 c0-0.6,0.3-1.1,0.7-1.5c0.6-0.6,1.4-0.9,2.4-0.9c1,0,1.8,0.4,2.4,0.9C11.7,27.2,12,27.8,12,28.4z M33.4,20.7 C33.4,20.7,33.4,20.7,33.4,20.7c-0.6-0.6-1.5-0.9-2.4-0.9c-1,0-1.8,0.4-2.4,0.9c0,0,0,0,0,0.1c-0.4,0.4-0.7,0.9-0.7,1.5 c0,0.6,0.3,1.1,0.7,1.5v6.1l0,0v7.7c0,1.4,1,2.4,2.4,2.4s2.4-1.1,2.4-2.4v-2.4v-5.3v-6c0,0,0,0,0,0c0.4-0.4,0.7-1,0.7-1.5 C34.1,21.7,33.9,21.2,33.4,20.7z M22.3,15.6c-0.6-0.6-1.4-0.9-2.4-0.9c-1,0-1.8,0.4-2.4,0.9c-0.4,0.4-0.7,1-0.7,1.5 c0,0.6,0.3,1.1,0.7,1.5v11.2l0,0v7.7c0,1.4,1,2.4,2.4,2.4s2.4-1.1,2.4-2.4v-2.4v-5.3V18.7c0.4-0.4,0.7-1,0.7-1.5 C23,16.6,22.8,16,22.3,15.6z"/>
</svg>
