<svg version="1.1" viewBox="0 0 40 40" xmlns="http://www.w3.org/2000/svg" fill="currentColor">
	<path d="M9.9,5.4C9.8,5,9.9,4.5,10,4c0.1-0.5,0.5-0.8,1-1c1.6-0.1,3.2-0.1,4.8-0.1c1.6,0,3.2,0,4.8,0l0.1-2.1c0-0.8,0.4-1,1.3-0.7 c0.1,0.9,0.2,1.8,0.2,2.7c0.3,0.3,0.6,0.6,0.8,0.9C23.4,4,23.5,4.5,23.6,5c0.2,2.3,0.2,6.6,0.2,12.8c-0.1,6.2-0.1,10.9-0.2,14.1 c0,0.5-0.2,0.8-0.5,1.1c-0.3,0.3-0.7,0.4-1.2,0.4c-3.3,0.1-6.7,0.1-10,0c-0.5,0.1-0.9-0.1-1.3-0.4c-0.4-0.3-0.6-0.7-0.6-1.3 C9.8,23.1,9.8,14.3,9.9,5.4L9.9,5.4z M15.5,30.1H18v-1.7h-2.5V30.1z M15.5,28H18v-1.6h-2.5V28z M15.5,25.9H18v-1.6h-2.5V25.9z M15.5,23.9H18v-1.6h-2.5V23.9z M18.8,30.1h2.6v-1.7h-2.6V30.1z M18.8,28h2.6v-1.6h-2.6V28z M18.8,25.9h2.6v-1.6h-2.6V25.9z M18.8,23.9h2.6v-1.6h-2.6V23.9z M13.8,6.8h6.1V5.9h-6.1V6.8z M12.6,18.7H21V8h-8.4V18.7z M12.2,23.9h2.5v-1.6h-2.5V23.9z M12.2,25.9h2.5v-1.6h-2.5V25.9z M12.2,28h2.5v-1.6h-2.5V28z M12.2,30.1h2.5v-1.6h-2.5V30.1z M35.7,26c0.1,1.3,0.1,2.5,0.1,3.8 c0,1.4-0.1,2.7-0.2,4.1c-0.1,1.4-0.6,2.6-1.4,3.8c-0.8,0.9-1.8,1.6-2.9,1.9c-1.2,0.3-2.3,0.5-3.5,0.4H12.9c-1,0-2-0.1-3-0.3 c-1-0.2-1.9-0.6-2.7-1.1c-0.8-0.6-1.4-1.3-1.8-2.1c-0.4-0.8-0.7-1.7-0.9-2.6c-0.2-3.2-0.2-6.3-0.1-9.5C4.6,23.2,5,22,5.7,21 c0.7-1,1.6-1.9,2.6-2.7c0.1,4.1,0.1,8.3,0,12.4c-0.2,0.2-0.2,0.9,0,2.1C8.5,34,9,34.7,9.7,34.9l6.6,0.1c2.4,0.1,4.7,0.1,6.7,0 c0.8,0,1.3-0.3,1.6-0.9c0.3-0.6,0.4-1.3,0.3-2.1V18.7h3.8c-0.1-1.5,0-3,0.2-4.5l1.2,0.1c0.1,1.6,0.1,3.1,0.1,4.7 c0.9,0.4,1.7,0.9,2.5,1.4c0.8,0.5,1.4,1.2,1.9,2.1C35.3,23.6,35.6,24.8,35.7,26L35.7,26z M29.1,24.4c0.3,0.6,0.8,0.8,1.5,0.5 s0.9-0.7,0.6-1.4c-0.3-0.7-0.8-0.9-1.6-0.6C29,23.3,28.9,23.8,29.1,24.4L29.1,24.4z M31.3,28c-0.6-0.4-1.2-0.5-1.9-0.2 c-0.7,0.3-1.1,0.8-1.2,1.5C28.1,30,28.4,30.6,29,31c0.6,0.4,1.2,0.5,1.9,0.2c0.7-0.3,1.1-0.8,1.2-1.5C32.1,29,31.9,28.4,31.3,28 L31.3,28 Z"/>
</svg>
