<svg version="1.1" viewBox="0 0 40 40" xmlns="http://www.w3.org/2000/svg">
    <defs>
        <radialGradient cx="50%" cy="50%" fx="50%" fy="50%" r="50%" id="radialGradient-1">
            <stop stop-color="#0F58AB" offset="0%"></stop>
            <stop stop-color="#0E52A5" offset="24%"></stop>
            <stop stop-color="#0A4193" offset="58%"></stop>
            <stop stop-color="#042575" offset="96%"></stop>
            <stop stop-color="#032272" offset="100%"></stop>
        </radialGradient>
        <radialGradient cx="50.0086296%" cy="50.0058583%" fx="50.0086296%" fy="50.0058583%" r="54.1610697%" gradientTransform="translate(0.500086,0.500059),scale(0.862069,1.000000),translate(-0.500086,-0.500059)" id="radialGradient-2">
            <stop stop-color="#D2202F" offset="0%"></stop>
            <stop stop-color="#CD1F2E" offset="24%"></stop>
            <stop stop-color="#BF1E29" offset="52%"></stop>
            <stop stop-color="#A81B23" offset="81%"></stop>
            <stop stop-color="#95191D" offset="100%"></stop>
        </radialGradient>
    </defs>
    <g stroke="none" stroke-width="1" fill="none" fill-rule="evenodd">
        <g transform="translate(-142.000000, -183.000000)">
            <g transform="translate(142.000000, 183.000000)">
                <circle fill="url(#radialGradient-1)" cx="20" cy="20" r="20"></circle>
                <path d="M26.3376128,10.7338968 C25.5608135,10.7338968 24.9310253,11.3978701 24.9310253,12.2166793 L24.9310253,19.2398586 L24.275374,19.2398586 L24.275374,9.99205018 C24.275374,9.17233012 23.6460396,8.50972307 22.8687865,8.50972307 C22.0915335,8.50972307 21.462199,9.17324092 21.462199,9.99205018 L21.462199,19.240314 L20.8074553,19.240314 L20.8074553,8.25697605 C20.8074553,7.437256 20.1781208,6.77419355 19.4008678,6.77419355 C18.6236148,6.77419355 17.9942803,7.4377114 17.9942803,8.25697605 L17.9942803,19.240314 L17.3390828,19.240314 L17.3390828,9.99205018 C17.3390828,9.17233012 16.7092946,8.50972307 15.9324953,8.50972307 C15.155696,8.50972307 14.5259078,9.17324092 14.5259078,9.99205018 L14.5259078,23.2614963 L12.5857245,20.2863679 C12.1628408,19.5996247 11.2921178,19.404258 10.6405502,19.8505501 C9.98898253,20.2968421 9.80431121,21.2140178 10.2267412,21.8998502 C10.2267412,21.8998502 12.9704943,26.9092506 14.1883268,29.1288703 C15.3553407,31.1189685 17.9339331,32.9032258 20.612348,32.9032258 C24.8901889,32.9032258 27.5581677,29.7641534 27.5581677,25.8855113 L27.7419355,19.2389478 L27.7419355,12.2189563 C27.7437465,11.3992363 27.1139583,10.7338968 26.3376128,10.7338968 Z" fill="#FFFFFF"></path>
                <path d="M18.1192286,22.2580645 C17.8960464,22.2569546 17.6738491,22.2877446 17.4593902,22.3495291 C17.0480386,22.4715396 16.6794108,22.7069924 16.3957838,23.0288843 C16.1269919,23.3377733 15.9425488,23.7108322 15.8603225,24.111921 C15.6961631,24.898254 15.9215964,25.7211607 16.3409116,26.4238316 C17.0633957,27.6353331 18.3030505,28.5030425 19.4320463,29.4201263 C19.792069,29.7121058 20.1426415,30.0129239 20.4837637,30.3225806 C20.826715,30.014143 21.1772875,29.7133249 21.5354811,29.4201263 C22.6644769,28.5030425 23.9041317,27.6371618 24.6266158,26.4238316 C25.045931,25.7211607 25.2713643,24.898254 25.1076622,24.111921 C25.0251456,23.710841 24.8405619,23.3378163 24.5717436,23.0288843 C24.28829,22.7070074 23.9198121,22.471549 23.5085945,22.3495291 C23.2939729,22.2877751 23.0716291,22.2569862 22.8482988,22.2580645 C22.6246098,22.2583392 22.4020003,22.2891011 22.1866314,22.3495291 C21.7648528,22.4686598 21.3816114,22.6960966 21.0750118,23.009226 C20.7885078,23.3018759 20.5835724,23.664376 20.4805628,24.0607179 C20.3784063,23.6645336 20.1742449,23.3020081 19.8884002,23.009226 C19.5818006,22.6960966 19.1985592,22.4686598 18.7767806,22.3495291 C18.562739,22.2894707 18.3415391,22.2587123 18.1192286,22.2580645 Z"  fill="url(#radialGradient-2)"></path>
            </g>
        </g>
    </g>
</svg>
