<svg version="1.1" viewBox="0 0 40 40" xmlns="http://www.w3.org/2000/svg" fill="currentColor">
	<path d="M9.6,17.9h7c1,0,1.7,0.8,1.7,1.7v2.6c0,1-0.8,1.7-1.7,1.7h-7c-1,0-1.7-0.8-1.7-1.7v-2.6C7.9,18.7,8.7,17.9,9.6,17.9 L9.6,17.9z M28.8,3.1c-1.3,0-2.4,1-2.6,2.2l-3.9-2.9c-0.5-0.7-1.3-1.2-2.2-1.2c-0.9-0.1-1.8,0.4-2.2,1.2l-17.5,12 c0,0-1.5,3.4,1.4,3.4h0.8v17.5c0,1.9,1.6,3.5,3.5,3.5h2.6v-8.7c0-1,0.8-1.7,1.7-1.7h5.3c1,0,1.7,0.8,1.7,1.7v8.7H34 c1.9,0,3.5-1.6,3.5-3.5V17.9h0.8c2.9,0,1.4-3.4,1.4-3.4l-4.8-2.7V5.7c0-0.7-0.3-1.4-0.8-1.8s-1.2-0.8-1.8-0.8H28.8z M24.4,17.9h6.1 c1,0,1.7,0.8,1.7,1.7v2.6c0,1-0.8,1.7-1.7,1.7h-6.1c-1,0-1.7-0.8-1.7-1.7v-2.6C22.7,18.7,23.5,17.9,24.4,17.9z M24.9,28.2H31 c1,0,1.7,0.8,1.7,1.7v2.6c0,1-0.8,1.7-1.7,1.7h-6.1c-1,0-1.7-0.8-1.7-1.7v-2.6C23.2,29,23.9,28.2,24.9,28.2 Z"/>
</svg>
