<svg version="1.1" viewBox="0 0 40 40" xmlns="http://www.w3.org/2000/svg">
    <path d="M20,0.6c10.7,0,19.4,8.7,19.4,19.4S30.7,39.4,20,39.4S0.6,30.7,0.6,20S9.3,0.6,20,0.6 Z" fill="#FCEEA2"/>
    <path d="M20,40C9,40,0,31,0,20S9,0,20,0s20,9,20,20S31,40,20,40z M20,1.1C9.6,1.1,1.1,9.6,1.1,20 c0,10.4,8.5,18.9,18.9,18.9c10.4,0,18.9-8.5,18.9-18.9C38.8,9.6,30.4,1.1,20,1.1 Z" fill="#EAD45A"/>
    <path d="M24.1,28.4h-7.5v-0.8c0.2,0,0.4,0,0.6-0.1c0.2,0,0.4-0.1,0.5-0.1c0.3-0.1,0.4-0.2,0.5-0.4 c0.1-0.2,0.2-0.4,0.2-0.6v-7.6c0-0.2-0.1-0.5-0.2-0.7c-0.1-0.2-0.3-0.3-0.5-0.5c-0.1-0.1-0.4-0.2-0.6-0.2c-0.3-0.1-0.6-0.1-0.8-0.1 v-0.6c0-0.1,0.1-0.2,0.1-0.2l5.7-0.3l0,0l0.2,0.2v9.9c0,0.2,0.1,0.5,0.2,0.6c0.1,0.2,0.3,0.3,0.5,0.4c0.2,0.1,0.3,0.1,0.5,0.2 c0.2,0,0.4,0.1,0.6,0.1V28.4z M22.3,11.6c0,0.5-0.2,1-0.7,1.4c-0.5,0.4-1,0.6-1.7,0.6c-0.6,0-1.2-0.2-1.7-0.6 c-0.5-0.4-0.7-0.8-0.7-1.4c0-0.5,0.2-1,0.7-1.4c0.5-0.4,1-0.6,1.7-0.6s1.2,0.2,1.7,0.6C22.1,10.6,22.3,11.1,22.3,11.6 Z" fill="#6A4300"/>
</svg>
