<svg version="1.1" viewBox="0 0 40 40" xmlns="http://www.w3.org/2000/svg" fill="currentColor">
	<style type="text/css">
		.st0{fill:#FFFFFF;}
	</style>
	<path d="M20,0c11.1,0,20,9,20,20s-8.9,20-20,20S0,31.1,0,20S8.9,0,20,0z"/>
	<path class="st0" d="M27.5,24.7c0,0.3-0.2,0.6-0.3,0.8l-1.7,1.7c-0.2,0.2-0.5,0.3-0.8,0.3c-0.3,0-0.6-0.2-0.8-0.3L20,23.5l-3.8,3.8 c-0.2,0.2-0.5,0.3-0.8,0.3c-0.3,0-0.6-0.2-0.8-0.3l-1.7-1.7c-0.2-0.2-0.3-0.5-0.3-0.8c0-0.3,0.2-0.6,0.3-0.8l3.6-4l-3.6-3.6 c-0.3-0.3-0.5-0.6-0.5-1c0-0.3,0.2-0.6,0.3-0.8l1.7-1.7c0.5-0.3,0.6-0.5,1-0.5c0.3,0,0.6,0.2,0.8,0.3l3.8,3.8l3.8-3.8 c0.2-0.2,0.5-0.3,0.8-0.3c0.3,0,0.6,0.2,0.8,0.3l1.7,1.7c0.2,0.2,0.3,0.5,0.3,0.8c0,0.3-0.2,0.6-0.3,0.8l-3.6,4l3.8,3.8 C27.5,24,27.5,24.4,27.5,24.7z"/>
</svg>
