<svg version="1.1" viewBox="0 0 40 40" xmlns="http://www.w3.org/2000/svg" fill="currentColor">
	<path d="M12.4,7.3c0.1,4.1,3.5,7.3,7.6,7.3s7.5-3.3,7.6-7.3C27.5,3.3,24.1,0,20,0S12.5,3.3,12.4,7.3L12.4,7.3z M8.3,39.4v-9.1 c0,0,1.7,0.7,1.7,3.5V40h19.9v-6.3c0-2.8,1.7-3.5,1.7-3.5v9.2h2.9V25.7C30.6,16.5,20,17,20,17S9.4,16.5,5.4,25.7v13.8L8.3,39.4 L8.3,39.4z M13,29.1c0,0-1.2-4.6,2.9-5.1c2.2-0.3,3.4,0.6,4,1.4c0.6-0.8,1.8-1.7,4-1.4c4.1,0.6,2.9,5.1,2.9,5.1s-1.3,3.4-6.9,7.3 v0.1l-0.1-0.1l-0.1,0.1v-0.1C14.3,32.5,13,29.1,13,29.1 Z"/>
</svg>
