<svg version="1.1" viewBox="0 0 40 40" xmlns="http://www.w3.org/2000/svg" fill="currentColor">
	<path d="M15.8,30.1h8V17.9l-3.4,3.5l-0.1,0.1c0,0,0,0,0,0c0,0,0,0,0,0c-0.1,0.1-0.3,0.2-0.4,0.1c-0.2,0-0.3-0.1-0.5-0.1l-0.1-0.1 l-0.1-0.1l-3.3-3.5L15.8,30.1L15.8,30.1z M5.5,14.6c0,4.7,2.2,9,5.9,11.8c-0.4,0.4-0.6,1-0.6,1.5c0,0.6,0.2,1.2,0.6,1.6 s1,0.7,1.6,0.7h1.3V16.1c0-0.3,0.1-0.4,0.3-0.4h0.7c0.2,0,0.4,0.2,0.3,0.4l0,0c0.1,0.1,0.1,0.1,0.2,0.1l3.8,3.9l3.8-3.9 c0.1-0.1,0.1-0.1,0.2-0.1l0,0c0-0.3,0.1-0.4,0.3-0.4h0.7c0.2,0,0.4,0.2,0.3,0.4v14h1.3c0.6,0,1.2-0.2,1.6-0.7 c0.4-0.4,0.6-1,0.6-1.6c0-0.5-0.1-0.9-0.4-1.3c3.9-2.8,6.2-7.2,6.2-12c0-8-6.6-14.5-14.6-14.4C11.9,0,5.5,6.6,5.5,14.6L5.5,14.6z M12.6,32.1c0,0.3,0.6,0.7,1.3,0.7h11.2c0.8,0,1.3-0.3,1.3-0.7c0-0.4-0.6-0.7-1.3-0.7H14C13.2,31.4,12.6,31.7,12.6,32.1L12.6,32.1z M13.1,34.8c0,0.3,0.6,0.7,1.2,0.7h-0.8v2.8c0,0.9,0.8,1.7,1.7,1.7h8.2c0.9,0,1.7-0.8,1.7-1.7v-2.8h-0.8c0.7,0,1.2-0.3,1.2-0.7 c0-0.4-0.6-0.7-1.2-0.7H14.3C13.6,34.1,13.1,34.4,13.1,34.8L13.1,34.8 Z"/>
</svg>
