<svg version="1.1" viewBox="0 0 40 40" xmlns="http://www.w3.org/2000/svg" fill="currentColor">
	<path d="M25.3,18.2c0,0,0.1,0.7,0.1,0.9c0,0.3,0.4,1.1,0.4,1.1s-0.7-0.9-1.3-1.3c-0.6-0.4-1.1-1.3-1.1-1.3 C24.9,17.8,25.3,18.2,25.3,18.2 M31.6,37.2c0-0.2-0.1-0.4-0.1-0.4l-0.1-0.7l-0.2-0.7l-0.1-0.6l-0.2-0.4h-0.6h-0.6 c0,0,0.5-1.4,0.3-3c-0.2-1.6-1.4-5.1-1.4-5.1s2.1,1.2,2.9,1c0.8-0.1,2-0.3,2.1-1.2c0.1-0.9,0.7-2.3-0.5-3.7c-1.2-1.4-2.5-3.2-3-3.6 c-0.5-0.4-2.7-2-3.2-2.3c-0.6-0.3-3-1.4-3.6-1.5c-0.6-0.1-0.9-0.7-1.4-0.3c-0.4,0.4-1,0.7-1.1,0.6c-0.1-0.1-0.4-0.5-0.7-0.5 c-0.4,0-0.9-0.1-0.9-0.1s-0.4-0.8-0.1-1.4c0.2-0.6,1.3-1.6,1.6-2c0.3-0.4,0.2-1.9,0.6-2.3c0.4-0.4,1.6-2.1,2-2.5 c0.3-0.4,0.7-0.8,0.7-0.9V5.1L24,4.9c0,0,0.9-0.6,0.9-1.2S24.7,2,23.9,1.8c-0.8-0.2-2.2-0.1-3.8,0c-1.6,0.1-2-0.2-2.4-0.4 C17.3,1.1,16.9,0,16.3,0c-0.6,0-1.1,0.5-1.7,0.8s-3.4,0.4-6.2,2.6c0,0-3.4,4.8-1.8,7c1.6,2.2,3.6,3.3,3.9,4.3 c0.4,1,0.9,2.8,0.9,2.8l-0.6,0.1l0.6,2.6l-0.3,0.7l0.1,0.3c0,0-1.4,2.1-1.4,4.4C9.6,27.7,7.8,34.7,8.9,37c0.1,0.2,0.2,0.5,0.4,0.7 c3.2,1.4,6.8,2.2,10.6,2.2C24.1,40,28.1,39,31.6,37.2 Z"/>
</svg>
