<svg version="1.1" viewBox="0 0 40 40" xmlns="http://www.w3.org/2000/svg" fill="currentColor">
	<path d="M25.6,26.3c-0.1-0.2-0.3-0.3-0.4-0.5c-0.1-0.1-0.1-0.2-0.2-0.2c-0.1-0.4-0.2-0.7-0.4-0.9c-0.2-0.2-0.5-0.3-0.8-0.3 c-0.1-0.1-0.3-0.2-0.3-0.3c0-0.2-0.1-0.4-0.2-0.6c-0.2-0.2-0.4-0.4-0.7-0.5c-0.2-0.1-0.3-0.1-0.5-0.1c-0.1,0-0.2,0.1-0.3,0.2h-0.1 c-0.1-0.1-0.2-0.2-0.3-0.3c0-0.1,0-0.1,0-0.1c-0.1,0-0.1-0.1-0.1-0.2c0-0.1,0-0.2,0-0.4c0,0,0.1,0,0.1,0c0,0,0-0.1,0-0.1 c0,0,0.1,0,0.1,0l0,0v-0.1c0.2,0,0.3-0.1,0.3-0.3c0.1-0.1,0.2-0.1,0.3-0.2c0-0.1,0-0.2,0.1-0.2c0.1-0.2,0.3-0.4,0.4-0.6v0 c0,0,0,0,0,0.1c0-0.1,0.1-0.1,0.1-0.2c0,0,0,0,0.1,0c0-0.1,0.1-0.2,0.2-0.3v0c0,0,0,0.1,0,0.1c0,0,0,0,0,0c0-0.1,0.1-0.2,0.1-0.2 c0.1,0.1,0.1,0.1,0.2,0.2c0.2,0.1,0.3,0.1,0.3,0.1c-0.1,0-0.2-0.1-0.3-0.2c0-0.1-0.1-0.1-0.1-0.2c0,0,0.1,0.1,0.1,0.1 c0.1,0.1,0.2,0.1,0.3,0.1c-0.1,0-0.2-0.1-0.3-0.2c0,0-0.1-0.1-0.1-0.1c0,0,0.1-0.1,0.1-0.1c0,0.1,0.1,0.2,0.2,0.2 c0.1,0.1,0.3,0.1,0.4,0.2c-0.2-0.1-0.3-0.1-0.5-0.2c0-0.1-0.1-0.1-0.1-0.1c0,0,0.1-0.1,0.1-0.1c0.1,0.1,0.2,0.2,0.4,0.3l0.4,0.1 c-0.2-0.1-0.4-0.2-0.6-0.3c0,0-0.1-0.1-0.1-0.1c0.1-0.1,0.1-0.2,0.2-0.2c0-0.1,0-0.1,0.1-0.2l0.2-0.1c0,0,0.1-0.1,0.1-0.2 c0,0,0.1,0,0.1-0.1c0.1-0.1,0.3-0.1,0.4-0.2c0,0,0.1,0,0.1-0.1c0.1-0.2,0.2-0.5,0.1-0.7c0-0.1-0.1-0.2-0.1-0.2c0-0.1,0-0.2-0.1-0.3 c-0.2-0.2-0.5-0.2-0.8-0.2c-0.5-0.1-1-0.2-1.4-0.3c-0.2-0.1-0.6-0.1-0.8-0.2c0,0-0.1,0-0.1-0.1c-0.1,0.1,0,0.1-0.1,0 c0.2-0.4,0.4-0.7,0.7-1c-0.2,0.2-0.4,0.3-0.5,0.5c0-0.1,0-0.1,0-0.1c0,0.1-0.1,0.1-0.1,0.2c0,0,0.4-1,0.4-1 c-0.2,0.3-0.4,0.7-0.5,1.1c0.2-0.3,0.2-0.6,0.2-1c0,0.3-0.1,0.5-0.2,0.7c0-0.1,0-0.1-0.1-0.2c0,0,0,0,0-0.1 c0.1-0.2,0.1-0.5,0.1-0.7c0,0.2,0,0.5-0.1,0.7c-0.1-0.2-0.2-0.3-0.3-0.4c0,0,0.1,0.3,0.2,0.5c0,0.1-0.1,0.1-0.1,0.2 C21,16,20.9,16,20.8,16.1c0-0.1,0.1-0.1,0-0.2c-0.1,0.1-0.1,0.2-0.2,0.3c0-0.1,0.1-0.3,0.1-0.3c0,0-0.1,0.1-0.2,0.2 c0,0,0-0.1,0-0.1c-0.1,0-0.1,0.1-0.1,0.2c0,0,0.1-0.2,0-0.2c0,0.1,0,0.2-0.1,0.2c0-0.1,0-0.2,0-0.3c0,0.1-0.1,0.1-0.1,0.2 c0,0,0,0,0-0.1c0,0-0.1,0.1-0.1,0.1c0,0-0.1,0-0.1-0.1c0,0,0,0.1,0,0.1h0c-0.1,0-0.1,0-0.2,0c-0.1,0-0.1,0-0.2,0 c-0.1,0-0.3-0.1-0.4-0.1c-0.3,0-0.7,0-1,0.1c-0.3,0-0.6,0.1-0.9,0.2c-0.1,0.1-0.6,0.3-0.6,0.3l0.5-0.1L17,16.7c0,0-0.1,0-0.1,0.1 c-0.3,0.1-0.6,0.2-0.8,0.4c0.2,0,0.3,0,0.4-0.1c-0.4,0.1-0.7,0.3-1,0.5c0.1,0,0.3,0,0.4-0.1c-0.2,0.1-0.5,0.3-0.7,0.5l0,0 c0.1,0,0.2-0.1,0.3-0.1c0,0-0.1,0.1-0.1,0.1c-0.1,0.1-0.3,0.2-0.4,0.4c0.1,0,0.2-0.1,0.3-0.2c0,0,0,0.1,0,0.1 c-0.1,0.1-0.2,0.2-0.3,0.3c0.1-0.1,0.3-0.1,0.4-0.2h0c-0.1,0.1-0.2,0.2-0.3,0.3c-0.1,0.1-0.3,0.4-0.3,0.4c0,0,0.5-0.3,0.5-0.3 c0,0-0.3,0.3-0.3,0.4c0,0.1-0.1,0.2-0.1,0.2c0.1-0.1,0.2-0.2,0.3-0.3c-0.1,0.2-0.2,0.5-0.3,0.7c0.1-0.1,0.2-0.2,0.3-0.3 c-0.1,0.2-0.2,0.3-0.2,0.5c0.1-0.1,0.3-0.1,0.4-0.2c-0.1,0.2-0.2,0.4-0.4,0.5c0.1,0,0.2-0.1,0.2-0.1c0,0-0.1,0.2-0.1,0.3 c0.1,0,0.3-0.2,0.3-0.2c-0.2,0.1-0.3,0.3-0.3,0.5c0.1,0,0.1-0.1,0.2-0.2c0.1,0,0.2-0.1,0.2-0.1h0c0,0.1-0.1,0.2-0.2,0.2 c-0.1,0.1-0.1,0.2-0.1,0.3c0.1-0.1,0.3-0.3,0.4-0.3c-0.1,0.1-0.2,0.2-0.2,0.4c0.1-0.1,0.3-0.2,0.3-0.2c-0.1,0.1-0.1,0.3-0.1,0.4 c0,0,0.1-0.1,0.2,0c-0.1,0.1-0.1,0.2-0.1,0.3c0.1-0.1,0.2-0.1,0.2-0.2c-0.1,0.1-0.1,0.3-0.1,0.4c0,0,0.1-0.1,0.2-0.1 c0,0-0.1,0-0.1,0.1c0,0.1-0.1,0.1-0.1,0.2c0.1-0.1,0.2-0.1,0.3-0.2c-0.1,0.1-0.1,0.2-0.1,0.3c0.1,0,0.1-0.1,0.2-0.1 c0,0,0,0.2,0,0.3l0.2-0.2c0,0.1,0,0.2,0,0.2c0,0,0.1-0.1,0.1-0.1c0,0,0,0.2,0,0.2c0.1,0,0.1-0.1,0.2-0.1c0,0,0,0.1,0,0.1 c0.1,0,0.2-0.1,0.2-0.2h0c0,0.1-0.1,0.1-0.1,0.2c0,0.2,0.1,0.3,0.2,0.5c0,0.2,0,0.3,0.1,0.4c-0.1,0.4-0.1,0.9-0.1,1.3v0.3 c0,0.1-0.1,0.1-0.1,0.2c-0.1,0.3-0.2,0.6-0.3,0.8c-0.2,0.4-0.3,0.8-0.5,1.2c-0.1,0.3-0.2,0.6-0.4,0.9l0,0c0,0,0,0,0,0.1 c-0.1,0.3-0.3,0.7-0.4,1.1c0,0.2-0.1,0.3-0.1,0.5c-0.1,0.3-0.1,0.7-0.2,1.1c0,0.1,0,0.3,0,0.4c-0.1,0.4-0.1,0.8,0,1.2 c0,0.2,0,0.4,0,0.6c0.1,0.3,0,0.7,0.1,0.9c0,0,0,0.1,0.1,0.2l-7.6,5.1l4.1-14.6l1-3.7l0,0l-1,3.7L0,14.7h14.8l5.1-13.9l5.1,13.9 l14.9,0l-11.7,9.9l0,0l4.2,14.6l-6.9-4.6c0-0.2,0-0.5,0-0.7c0-0.2,0-0.3,0-0.5c-0.1-0.3-0.1-0.6-0.1-0.9c0-0.1,0-0.3,0-0.4 c0-0.1,0-0.3-0.1-0.5v-0.2c-0.1-0.3-0.1-0.5-0.1-0.8c0.4-0.1,0.7-0.3,0.9-0.6c0.1-0.1,0.2-0.2,0.3-0.4c0.1-0.1,0.1-0.1,0.2-0.2 c0.1-0.1,0.1-0.1,0.2-0.2L27,29c0.1-0.2,0.2-0.5,0.1-0.7c-0.1-0.2-0.2-0.3-0.3-0.5c-0.1-0.2-0.3-0.5-0.4-0.7c0,0-0.1-0.1-0.1-0.1 c-0.1-0.1-0.2-0.2-0.3-0.4l0,0c0,0,0,0,0,0c0,0,0,0,0,0c0,0,0,0,0,0C25.7,26.5,25.6,26.4,25.6,26.3L25.6,26.3z M21.6,14.9 L21.6,14.9L21.6,14.9L21.6,14.9c0,0.1,0,0.2,0,0.2C21.6,15,21.6,15,21.6,14.9L21.6,14.9z M20.4,14.7h0.2H20.4L20.4,14.7L20.4,14.7z  M21.3,16.1c0,0-0.1,0.1,0-0.2c0,0-0.2,0.2-0.3,0.3c0.1-0.1,0.2-0.2,0.3-0.4c-0.1,0.1,0,0-0.1,0.1c-0.1,0.1-0.2,0.1-0.2,0.2 c0.1-0.1,0.3-0.3,0.4-0.4C21.3,15.8,21.3,15.9,21.3,16.1C21.3,16,21.3,16.1,21.3,16.1 Z"/>
</svg>
