<svg version="1.1" viewBox="0 0 40 40" xmlns="http://www.w3.org/2000/svg" fill="currentColor">
	<path d="M23.9,7.8l0.7,0.6C24.7,8.1,24.7,8,25,7.7c0.1-0.1,0.3-0.3,0.4-0.3c0,0,0.1,0.1,0.1,0.1c0.3,0.3,0.7,0.8,0.7,0.8l-0.7,0.8 L26,9.5c0,0,0.4-0.5,0.6-0.7C27,9.1,27.5,9.3,28,9.2l-1,1.1l0.6,0.5c0.6-0.7,0.8-1,1-1.6C29,9.1,29.1,9,29.5,8.7l-0.5-0.4 c-0.4,0.3-0.9,0.2-1.3-0.2l-0.2-0.2l0.5-0.5L27.4,7L27,7.4c-0.2-0.2-0.3-0.4-0.5-0.6c-0.7-0.6-1.4-0.5-2.2,0.3 C24.1,7.4,23.9,7.8,23.9,7.8 M23.4,8.3c0,0-0.4,0.3-0.6,0.5c-0.8,0.9-0.7,1.6,0,2.1c0.2,0.1,0.4,0.3,0.7,0.4l-0.4,0.4l0.5,0.4 l0.5-0.5c0.1,0,0.1,0.1,0.2,0.2c0.4,0.3,0.6,0.8,0.4,1.2l0.6,0.4c0.2-0.4,0.3-0.5,0.3-0.9c0.6-0.3,0.9-0.5,1.5-1.2l-0.6-0.5l-1,1.1 c0-0.5-0.2-0.9-0.6-1.2c0.2-0.2,0.6-0.7,0.6-0.7L25,9.6l-0.7,0.8c0,0-0.6-0.2-0.9-0.5c0,0-0.1-0.1-0.1-0.1c0.1-0.2,0.1-0.3,0.3-0.4 C23.7,9.1,23.8,9,24,8.8L23.4,8.3 M28.7,6.1c2.1,1.7,2.3,4.7,0.5,6.7s-4.9,2.2-6.9,0.5S20,8.6,21.8,6.6S26.7,4.4,28.7,6.1  M15.3,15.3c-0.2-0.2-0.4-0.3-0.6-0.5c-0.5-0.5-0.5-1.2-0.1-1.7l9.4-10.3c0.5-0.5,1.3-0.6,1.9-0.1l6.8,5.7c0.6,0.5,0.6,1.3,0.1,1.8 L26,17.6c-0.2,0.2-0.5,0.4-0.8,0.4C21.8,18.5,18.1,17.6,15.3,15.3 M24,0.4L12.4,13.2c0.1,0.8,0.2,1.1,0.3,1.9l3.3,1.8 c0.8,0.4,1.3,1.2,1.3,2.1c0,0.9-0.5,1.7-1.3,2.1c-0.4,0.2-0.8,0.3-1.3,0.3c-0.2,0-0.5,0-0.7-0.1c-0.2-0.1-0.4-0.1-0.7-0.2 c-1.4-0.4-2.3,1.3-1.3,2.2l5.2,4.4c0.6,0.5,1.4,0.4,1.9-0.1L35.3,9.9c0.5-0.5,0.4-1.3-0.1-1.8l-9.3-7.8C25.3-0.2,24.5-0.1,24,0.4  M0.3,17C0.2,17,0,16.9,0,16.7V8.5c0-0.3,0.1-0.4,0.4-0.4c0.5,0.1,1-0.1,1.5-0.2c1.8-0.5,3.7-1,5.5-1.5C8.5,6.1,9.6,6,10.7,6.2 c1.8,0.3,4.2,0.6,6.1,0.9c-0.1,0.1-0.1,0.2-0.2,0.3c-1.4,1.6-2.8,3.1-4.1,4.7c-0.1,0.1-1,0.2-1.1,0.2c-0.4,0-0.8,0-1.2,0 c-0.6,0-1,0.3-1.1,0.8c-0.1,0.5,0.1,1,0.6,1.2c2,1.1,4,2.1,6,3.2c1.3,0.7,1.3,2.4,0.1,3.1c-0.4,0.3-0.9,0.3-1.4,0.2 c-2.3-0.7-4.6-1.4-7-2.1c-0.9-0.3-1.5-0.8-2.1-1.4c-0.2-0.2-0.4-0.4-0.7-0.7c-0.3-0.3-0.8-0.4-1.2-0.3C2.3,16.5,1.3,16.7,0.3,17  M40,38.3c0.2,0.4-0.1,0.8-0.6,0.9c-0.4,0-0.9,0.1-1.3,0.1c-1.7,0.2-3.3,0.3-4.9,0.4c-1,0.1-2.1,0.2-3.1,0.3c-0.1,0-0.2,0-0.3-0.1 c-0.8-1.2-2-1.6-3.5-1.6c-2.4,0-4.8,0-7.2,0c-1.6,0-3.1-0.4-4.4-1.3c-1-0.6-1.9-1.4-2.9-2.2c-1.3-1.1-2.5-2.2-3.8-3.2 c-0.8-0.7-1-1.8-0.3-2.6c0.6-0.8,1.8-1,2.7-0.4c1.8,1.2,3.6,2.4,5.4,3.6c1,0.7,2.1,1,3.4,1c2.3,0,4.6,0,7,0c0.1,0,0.3,0,0.4-0.1 c0.2-0.1,0.4-0.3,0.4-0.5c0-0.3-0.2-0.5-0.4-0.5c-0.1,0-0.3,0-0.4,0h-4.3c-0.8,0-1.5-0.5-1.7-1.2c-0.2-0.7,0-1.5,0.6-2 c0.3-0.2,0.7-0.3,1.1-0.3c3.1,0,6.1,0,9.2,0c1.4,0,2.7,0.2,3.9,0.9c1.1,0.7,1.8,1.6,2.5,2.7c0.9,1.5,1.5,3.2,2.2,4.8 C39.6,37.4,39.8,37.8,40,38.3 Z"/>
</svg>
