<svg version="1.1" viewBox="0 0 40 40" xmlns="http://www.w3.org/2000/svg" fill="currentColor">
	<path d="M19.6,19.3c-1.3-0.7-2.2-1-2.6-0.9c-2.2-0.2-5.2,0.2-9.2,1.2c-3.9,0.9-6.3,1.9-7,2.7c-0.6,1.6-0.9,3.1-0.7,4.5 c0.1,1.4,0.7,2.4,1.6,2.9c2,0.9,3.8,1.6,5.6,2.1c1.7,0.5,2.7,0.7,2.8,0.7c-0.1,0.3,0.3,1.6,1.2,3.8c0.9,2.2,2.3,3.4,4.3,3.6 c1.7-0.2,3.1-0.7,4.2-1.6c1.2-0.9,1.9-1.6,2.2-2.2c0.4-0.8,0.6-2.7,0.7-5.7c0.1-3,0.1-5,0-5.9C21.9,21.8,20.9,20,19.6,19.3  M32.8,23.4c-1.2,0.2-2.6,0.7-4,1.4c-1.4,0.7-2.5,2-3.3,3.8c-0.7,1.5-0.9,2.7-0.7,3.6c0.2,0.9,0.8,1.6,1.6,2c1.3,0.5,3,0.2,5.1-1.1 c2.1-1.2,3.5-2.3,4.2-3.2c1-1.7,1.3-3.3,0.7-4.8C36,23.7,34.8,23.1,32.8,23.4 M9.5,16.6c1.4,0,2.6-0.7,3.6-2.1 c1-1.4,1.5-3.2,1.5-5.3c0-2.1-0.4-3.9-1.2-5.2c-0.8-1.3-2.1-1.4-3.8-0.3C8.5,4.4,7.6,5.1,7,5.8C6.3,6.5,5.8,7.6,5.4,9.3 c-0.4,2.1-0.2,3.8,0.7,5.2C6.9,15.9,8.1,16.6,9.5,16.6 M39.7,10.7c-0.6-1.6-2.1-2.2-4.5-1.9c-1.4,0.3-2.9,0.8-4.6,1.6 c-1.6,0.8-2.9,2.2-3.9,4.1c-0.7,1.7-1,3-0.8,4c0.2,1,0.8,1.7,1.9,2.3c1.6,0.5,3.7,0.1,6.1-1.3c2.5-1.4,4.1-2.5,4.9-3.5 C40,14.1,40.3,12.4,39.7,10.7 M17.8,11.6c-0.5-0.9-0.5-2.3,0-4.3c0.4-1.7,1.2-3.2,2.4-4.4c1.2-1.2,2.4-2.1,3.7-2.5 c2-0.7,3.5-0.3,4.4,1.1c0.9,1.4,1,3.1,0.3,5.2c-0.8,2.1-2,3.9-3.6,5.6c-1.6,1.6-3.1,2.2-4.5,1.6C19.2,13.2,18.3,12.5,17.8,11.6 Z"/>
</svg>
