<svg version="1.1" viewBox="0 0 40 40" xmlns="http://www.w3.org/2000/svg" fill="currentColor">
	<path d="M6.2,32.4V35c0,0.6,0.5,1.1,1.1,1.1h31.5c0.6,0,1.1-0.5,1.1-1.1v-2.6H6.2z M23.8,17v1.4c0.4-0.1,0.7-0.1,1.3-0.1 c0.3,0,0.6,0,0.8,0.1c0,0.1,0,0.2,0,0.3c0,0.7-0.3,1.7-0.3,1.7h-1.8v1.1h1.6c0,0.9,0.3,1.5,0.9,2.1h-2.5v1.3c1.5,0,2.1-0.1,3.1-0.6 c0.6,0.3,0.8,0.4,1.6,0.6l0-1.1c-0.7-0.2-1.2-0.9-1.2-1.9c0-0.2,0-0.3,0-0.4h1.2l0-1.1h-0.9c0.1-0.4,0.2-0.9,0.2-1.2 c0-1.4-0.8-2.3-2.7-2.3C24.5,16.8,23.8,17,23.8,17L23.8,17z M22.7,17c0,0-0.7-0.1-1.3-0.1c-1.9,0-2.8,0.9-2.7,2.3 c0,0.3,0.1,0.8,0.2,1.2h-0.9l0,1.1h1.2c0,0.1,0,0.2,0,0.4c0,0.9-0.4,1.6-1.2,1.9l0,1.1c0.7-0.2,0.9-0.2,1.6-0.6 c1,0.5,1.6,0.6,3.1,0.6v-1.3h-2.5c0.6-0.5,0.9-1.2,0.9-2.1h1.6v-1.1h-1.9c0,0-0.3-1-0.3-1.7c0-0.1,0-0.2,0-0.3 c0.2-0.1,0.5-0.1,0.8-0.1c0.6,0,0.8,0.1,1.3,0.1V17L22.7,17z M6.2,28.5V14.6c0-0.6,0.5-1.1,1.1-1.1h31.5c0.6,0,1.1,0.5,1.1,1.1 v13.9H6.2z M4.8,13.1v17.8c-0.2-0.2-0.2-0.5-0.3-0.7L0.2,12.5c-0.3-1.2-0.3-1.6,0.8-1.9l30.1-7.3c1.4-0.3,1.5,0,1.8,1.1l1.9,7.6 H5.9C5.3,12,4.8,12.5,4.8,13.1 Z"/>
</svg>
