<svg version="1.1" viewBox="0 0 40 40" xmlns="http://www.w3.org/2000/svg" fill="currentColor">
	<path d="M39.5,17.8L39.5,17.8c-0.5,0.3-1,0.5-1.6,0.6c-0.1,0-0.2,0-0.2-0.1c-0.1-0.1-0.1-0.1-0.1-0.2C37,12.5,31.3,7.8,23.9,6.7 c-1.2-0.2-2.3-0.3-3.5-0.3c-1.1,0-2.1,0.1-3.2,0.2c-1,0.1-2,0.3-3,0.6c-0.1,0-0.2,0-0.3-0.1c-1.1-1.2-2.6-2.4-4.6-2 c-0.1,0-0.2,0.1-0.3,0.2C9,5.4,9,5.5,9,5.6l0.8,3.2c0,0.1,0,0.3-0.1,0.3c-1.2,0.7-2.4,1.6-3.4,2.6l0,0c-1.7,1.5-3.7,2.6-5.9,3.3 c0,0-0.1,0-0.1,0C0.1,15.3,0,15.6,0,15.8l0.4,7.3c0,0.4,0.4,0.7,0.8,0.7c0.1,0,0.1,0,0.2,0c1,0.2,1.9,0.6,2.8,1.1 c1.5,0.8,2.6,2,3.9,3c0,0,0,0,0,0c0,0,0,0,0,0.1c2,1.4,3.2,3.6,3.1,6.1c0,0.3,0.2,0.8,0.5,0.8h6.8c0.7,0,0.7-0.8,0.7-1.1v-2 c0-1.2,1.9-1.1,1.9,0v2c0,0.7,0.4,1.1,0.8,1.1h6.3c0.5,0,0.8-0.6,0.9-0.8c0,0,0.8-3.7,3.7-6.1c0.1-0.1,0.2-0.3,0.4-0.4 c0.1-0.1,0.1-0.1,0.2-0.2c2.4-2.1,3.9-4.7,4.1-7.6c0-0.1,0.1-0.2,0.2-0.3c0.4-0.1,0.8-0.3,1.2-0.5c0.3-0.2,0.6-0.5,0.9-0.8 c0.1-0.1,0.1-0.3,0-0.4C39.8,17.8,39.6,17.8,39.5,17.8z M10.9,14.9C10.8,14.9,10.8,14.9,10.9,14.9c-0.8,0.7-1.8,0.8-2.6,0.3 c0.5-0.1,0.9-0.6,0.8-1.1c-0.1-0.5-0.5-0.9-1-0.9c-0.3,0-0.6,0.1-0.8,0.4c0-0.6,0.1-1.2,0.5-1.7c0,0,0-0.1,0.1-0.1 C10,10.2,12.5,12.7,10.9,14.9z M23.8,7.9c0,0.1,0,0.3-0.1,0.3c-0.1,0.1-0.2,0.1-0.3,0.1l-1.8-0.2c-0.7-0.1-1.4-0.1-2.2,0l-1.8,0.2 c-0.3,0-0.5-0.2-0.5-0.5V7.8c0-0.3,0.2-0.5,0.5-0.5l1.8-0.2c0.7-0.1,1.5-0.1,2.2,0l1.8,0.2c0.1,0,0.3,0.1,0.3,0.1 C23.7,7.6,23.8,7.7,23.8,7.9L23.8,7.9L23.8,7.9L23.8,7.9z M33.5,27.4c0,0-0.1,0.1-0.1,0.1C33.4,27.5,33.5,27.4,33.5,27.4 C33.5,27.4,33.5,27.4,33.5,27.4 Z"/>
</svg>
