<svg version="1.1" viewBox="0 0 40 40" xmlns="http://www.w3.org/2000/svg" fill="currentColor">
	<path d="M20,40C9,40,0,31,0,20S9,0,20,0s20,9,20,20S31,40,20,40z M18,24.1h3.1c0-1.3,0.3-2.3,0.9-3l1.7-1.7 c1.4-1.4,2.1-2.9,2.1-4.4c0-1.7-0.5-3-1.5-3.9c-1-0.9-2.5-1.4-4.3-1.4c-1.8,0-3.2,0.5-4.3,1.4c-1.1,0.9-1.6,2.2-1.6,3.8h3.3 c0-0.8,0.2-1.4,0.7-1.8s1.1-0.7,1.9-0.7c0.8,0,1.4,0.2,1.9,0.7c0.4,0.5,0.6,1.1,0.6,2c0,0.6-0.2,1.2-0.5,1.8 c-0.2,0.4-0.8,1-1.7,1.8c-0.9,0.9-1.5,1.7-1.8,2.4S18,22.9,18,24.1z M17.7,28.4c0,0.5,0.2,0.9,0.5,1.3s0.8,0.5,1.4,0.5 s1.1-0.2,1.4-0.5s0.5-0.8,0.5-1.3c0-0.5-0.2-1-0.5-1.3c-0.3-0.3-0.8-0.5-1.4-0.5c-0.6,0-1,0.2-1.4,0.5 C17.9,27.4,17.7,27.9,17.7,28.4 Z"/>
</svg>
