<svg version="1.1" viewBox="0 0 40 40" xmlns="http://www.w3.org/2000/svg" fill="currentColor">
	<path d="M8,18h3.9c0.5,0,0.8,0.6,0.4,1l-5,5c-0.6,0.6-1.5,0.6-2,0l-5-5c-0.4-0.4-0.1-1,0.4-1h3.8C5.4,9.1,13,2.1,22.1,2.1C32,2.1,40,10.1,40,20s-8,17.9-17.9,17.9c-5,0-9.4-2-12.7-5.3l2.5-2.5c0,0,0,0,0,0c5.6,5.6,14.6,5.6,20.2,0s5.6-14.6,0-20.2 S17.6,4.3,12,9.9C9.8,12.2,8.4,15,8,18z M21.3,13.7c0.3-0.8,1.4-0.8,1.7,0l1.4,3.7l3.9,0c0.9,0,1.3,1.1,0.6,1.6l-3.1,2.7l1.1,3.9 c0.2,0.8-0.7,1.5-1.4,1l-3.4-2.2l-3.3,2.2c-0.7,0.5-1.7-0.2-1.4-1l1.1-4l-3.1-2.7c-0.7-0.6-0.3-1.6,0.6-1.6l3.9,0L21.3,13.7 Z"/>
</svg>
