<svg version="1.1" viewBox="0 0 40 40" xmlns="http://www.w3.org/2000/svg" fill="currentColor">
	<path d="M3.9,25.3c0.8-0.9,2-0.9,3.1-0.9h29.3c1.7-0.2,3.2,0.9,3.6,2.5c0.2,1.6,0.2,3.2-0.1,4.8c-0.2,1.1-1.4,1.7-2.2,2.4 c-0.5,0.5-0.9,1.4-1.8,1.4c-1,0.2-1.4-0.9-2-1.5c-8.1-0.1-16.3,0-24.4,0c-0.7,0.9-1.9,2.2-2.9,1.1c-1.1-1.3-3.4-2-3.5-3.9 C2.9,29.2,2.4,26.8,3.9,25.3z M32.2,27.7c-0.5,0.3-0.7,0.8-0.5,1.3c0.2,0.5,0.7,0.8,1.3,0.6c1.4-0.1,3.9,0.7,4.1-1.2 C36.1,26.9,33.7,27.7,32.2,27.7L32.2,27.7z M2.7,20.8C-0.8,16.2-1,9.2,2.7,4.6c0.5,0.3,1,0.5,1.5,0.8C1,9.6,1,15.4,4.1,19.7 L2.7,20.8z M24.6,4.4c3.7,4.4,3.7,11.4,0.3,16c-0.5-0.2-1-0.4-1.5-0.7c3-4.3,3-9.9,0.1-14.2L24.6,4.4z M6,6.8l1.5,1 c-1.9,2.8-1.9,6.5,0,9.4L6,18.3C3.7,14.8,3.7,10.3,6,6.8L6,6.8z M19.9,7.9c0.5-0.3,1.1-0.6,1.6-0.9c2,3.4,2.2,8-0.3,11.2L20,17.1 C21.7,14.3,21.7,10.7,19.9,7.9z M10.7,11.7c0.6-2.7,4.7-2.9,5.7-0.4c0.9,1.7-0.4,3.5-1.8,4.3c-0.3,2.4,0.5,5.1-0.5,7.3 c-0.4-0.1-0.7-0.2-1.1-0.3c-0.2-2.3-0.1-4.7-0.1-7C11.4,14.9,10.1,13.4,10.7,11.7L10.7,11.7 Z"/>
</svg>
