<svg version="1.1" viewBox="0 0 40 40" xmlns="http://www.w3.org/2000/svg" fill="currentColor">
	<path d="M0,14.1v14.7h3.1c-0.1,0.2-0.1,0.5-0.2,0.8c0,0.8,0.4,1.5,1.1,1.9c0.7,0.4,1.5,0.4,2.2,0c0.7-0.4,1.1-1.1,1.1-1.9 c0-0.3-0.1-0.5-0.2-0.8h27c-0.1,0.2-0.1,0.5-0.2,0.8c0,0.8,0.4,1.5,1.1,1.9c0.7,0.4,1.5,0.4,2.2,0c0.7-0.4,1.1-1.1,1.1-1.9 c0-0.3-0.1-0.5-0.2-0.8H40V14.1h-5.9V20H6v-5.9H0z M7.4,10.8v5.2c0,1.4,1.3,2.6,3,2.6h6c1.7,0,3-1.2,3-2.6v-5.2 c0-1.4-1.3-2.6-3-2.6h-6C8.7,8.2,7.4,9.4,7.4,10.8z M20.8,10.8v5.2c0,1.4,1.3,2.6,3,2.6h6c1.7,0,3-1.2,3-2.6v-5.2 c0-1.4-1.3-2.6-3-2.6h-6C22.1,8.2,20.8,9.4,20.8,10.8 Z"/>
</svg>
