<svg version="1.1" viewBox="0 0 40 40" xmlns="http://www.w3.org/2000/svg" fill="currentColor">
    <path d="M28.6599375,25.0900764 C28.6594015,26.4988855 29.5158207,27.7692694 30.829791,28.3087652 C32.1437612,28.848261 33.6564726,28.5506053 34.6624492,27.5546145 C35.6684258,26.5586236 35.9695225,25.0604758 35.4253183,23.7588549 C34.8811141,22.4572341 33.5987998,21.6085177 32.1764021,21.6085176 C30.2372435,21.6142787 28.6664849,23.1694453 28.6599375,25.0900764 L28.6599375,25.0900764 Z M30.5060593,25.0900764 C30.5058248,24.6512349 30.6817315,24.2303005 30.9950324,23.9199926 C31.3083333,23.6096848 31.7333278,23.4354585 32.1764021,23.4356908 C33.0989069,23.4356908 33.8467448,24.1763844 33.8467448,25.0900764 C33.8467448,26.0037683 33.0989069,26.744462 32.1764021,26.744462 C31.7333278,26.7446943 31.3083333,26.570468 30.9950324,26.2601602 C30.6817315,25.9498523 30.5058248,25.5289179 30.5060593,25.0900764 L30.5060593,25.0900764 Z M7.26744854,25.0900764 C7.26691262,26.4988457 8.12328407,27.7692019 9.4372001,28.3087233 C10.7511161,28.8482447 12.2637928,28.5506692 13.2698041,27.554769 C14.2758154,26.5588689 14.5770211,25.0607928 14.0329561,23.759158 C13.4888911,22.4575232 12.2067123,21.6086947 10.7843548,21.6085176 C8.84502375,21.6140387 7.27399727,23.1692752 7.26744854,25.0900764 L7.26744854,25.0900764 Z M9.11357038,25.0900764 C9.11333589,24.6512349 9.28924262,24.2303005 9.60254351,23.9199926 C9.91584439,23.6096848 10.3408389,23.4354585 10.7839132,23.4356908 C11.706418,23.4356908 12.4542559,24.1763844 12.4542559,25.0900764 C12.4542559,26.0037683 11.706418,26.744462 10.7839132,26.744462 C10.3408389,26.7446943 9.91584439,26.570468 9.60254351,26.2601602 C9.28924262,25.9498523 9.11333589,25.5289179 9.11357038,25.0900764 L9.11357038,25.0900764 Z M14.7111178,18.240255 C14.4801298,18.2887308 14.2439086,18.3082768 14.0080015,18.2984341 L14.0080015,14.3510052 C14.0080015,14.3510052 14.4770402,14.1187263 14.9456371,13.9446265 C15.0335266,15.6278829 15.2971952,17.6886473 14.7111178,18.240255 Z M12.6892169,18.3561757 C8.67456438,18.443663 0.117480481,18.3561757 0.117480481,18.3561757 L0,23.2322827 C0.204928358,23.8127612 0.234519306,24.5384687 0.761856502,24.9155391 C2.22727092,25.7282965 2.31516045,25.6119384 3.48731533,25.6701175 L6.53474133,25.6701175 C6.50559204,25.4671468 6.65178016,25.2926096 6.65178016,25.0896389 C6.65178014,23.6378658 7.43376232,22.2963721 8.70316158,21.5704855 C9.97256084,20.8445989 11.5365252,20.8445989 12.8059245,21.5704855 C14.0753238,22.2963721 14.8573059,23.6378658 14.8573059,25.0896389 L14.8573059,25.4395883 C15.3115687,25.5226048 15.7729387,25.5614298 16.2348308,25.555509 L28.07386,25.555509 C28.0495605,25.4018932 28.0398016,25.246365 28.0447107,25.0909513 C28.0464831,22.9482648 29.7268025,21.1746532 31.8856708,21.0367392 C34.0445391,20.8988252 35.940977,22.4439445 36.2206455,24.5686518 C36.2206455,24.5686518 36.3973079,25.1202595 36.6896842,25.1491303 C37.4261526,25.1747664 38.161131,25.0665365 38.8582148,24.8298015 C39.4734416,24.2781939 40.1474085,23.9881733 39.9716295,22.0739503 C39.7667011,21.319372 39.3268118,21.4934718 39.0044029,21.2323221 C39.2609278,21.0587588 39.3878641,20.750133 39.3268118,20.4484355 C38.973487,19.5486282 38.973487,19.0263287 37.0703916,18.3876711 C34.51243,17.7534103 31.9046121,17.3359017 29.2751642,17.1396642 C28.8943786,17.1660151 28.5206183,17.0284296 28.2496391,16.7621563 C26.3996579,15.0662496 24.3301709,13.6215626 22.0956052,12.4660904 C20.9518233,11.9147267 19.7038265,11.607571 18.4325108,11.5645334 C15.707052,11.3322545 18.285881,11.4486126 15.473416,11.5063543 C15.1510071,11.5063543 14.9752281,11.8838622 14.9460788,12.4350324 C14.2721118,12.6673113 13.1291062,13.1314317 12.8362883,14.031239 C12.6008857,14.784505 12.63136,16.7310983 12.6887752,18.3561757 L12.6892169,18.3561757 Z M17.641505,12.9577693 C18.7355546,12.9035224 19.8320613,12.9229602 20.9234503,13.0159484 C21.7731963,13.0448192 26.0223682,15.9183409 26.9017051,16.8763273 L26.6084456,17.2262767 C24.1175061,17.1974059 20.6301908,17.2262767 18.1101019,17.1974059 C17.8451084,17.2555849 17.6410633,16.9349438 17.6410633,16.6457982 C17.5827647,15.4249123 17.641505,14.2057762 17.641505,12.9577693 Z"/>
</svg>
