<svg version="1.1" viewBox="0 0 40 40" xmlns="http://www.w3.org/2000/svg" fill="currentColor">
	<path d="M10,34.3c0-0.8-0.3-1.5-0.8-2c-0.6-0.6-1.2-0.8-2-0.8c-0.8,0-1.5,0.3-2,0.8c-0.6,0.6-0.8,1.2-0.8,2c0,0.8,0.3,1.5,0.8,2 c0.6,0.6,1.2,0.8,2,0.8c0.8,0,1.5-0.3,2-0.8C9.8,35.7,10,35.1,10,34.3z M18.6,34.3c0-0.8-0.3-1.5-0.8-2s-1.2-0.8-2-0.8 c-0.8,0-1.5,0.3-2,0.8c-0.6,0.6-0.8,1.2-0.8,2c0,0.8,0.3,1.5,0.8,2c0.6,0.6,1.2,0.8,2,0.8c0.8,0,1.5-0.3,2-0.8S18.6,35.1,18.6,34.3 z M10,25.7c0-0.8-0.3-1.5-0.8-2c-0.6-0.6-1.2-0.8-2-0.8c-0.8,0-1.5,0.3-2,0.8c-0.6,0.6-0.8,1.2-0.8,2s0.3,1.5,0.8,2 c0.6,0.6,1.2,0.8,2,0.8c0.8,0,1.5-0.3,2-0.8C9.8,27.2,10,26.5,10,25.7z M27.1,34.3c0-0.8-0.3-1.5-0.8-2s-1.2-0.8-2-0.8 c-0.8,0-1.5,0.3-2,0.8s-0.8,1.2-0.8,2c0,0.8,0.3,1.5,0.8,2s1.2,0.8,2,0.8c0.8,0,1.5-0.3,2-0.8S27.1,35.1,27.1,34.3z M18.6,25.7 c0-0.8-0.3-1.5-0.8-2c-0.6-0.6-1.2-0.8-2-0.8c-0.8,0-1.5,0.3-2,0.8c-0.6,0.6-0.8,1.2-0.8,2s0.3,1.5,0.8,2c0.6,0.6,1.2,0.8,2,0.8 c0.8,0,1.5-0.3,2-0.8S18.6,26.5,18.6,25.7z M10,17.1c0-0.8-0.3-1.5-0.8-2c-0.6-0.6-1.2-0.8-2-0.8c-0.8,0-1.5,0.3-2,0.8 c-0.6,0.6-0.8,1.2-0.8,2s0.3,1.5,0.8,2c0.6,0.6,1.2,0.8,2,0.8c0.8,0,1.5-0.3,2-0.8C9.8,18.6,10,17.9,10,17.1z M27.1,25.7 c0-0.8-0.3-1.5-0.8-2c-0.6-0.6-1.2-0.8-2-0.8c-0.8,0-1.5,0.3-2,0.8c-0.6,0.6-0.8,1.2-0.8,2s0.3,1.5,0.8,2s1.2,0.8,2,0.8 c0.8,0,1.5-0.3,2-0.8S27.1,26.5,27.1,25.7z M18.6,17.1c0-0.8-0.3-1.5-0.8-2c-0.6-0.6-1.2-0.8-2-0.8c-0.8,0-1.5,0.3-2,0.8 c-0.6,0.6-0.8,1.2-0.8,2s0.3,1.5,0.8,2c0.6,0.6,1.2,0.8,2,0.8c0.8,0,1.5-0.3,2-0.8C18.3,18.6,18.6,17.9,18.6,17.1z M35.7,34.3v-8.6 c0-0.8-0.3-1.4-0.8-2c-0.6-0.6-1.2-0.8-2-0.8c-0.8,0-1.4,0.3-2,0.8c-0.6,0.6-0.8,1.2-0.8,2v8.6c0,0.8,0.3,1.4,0.8,2 c0.6,0.6,1.2,0.8,2,0.8c0.8,0,1.4-0.3,2-0.8C35.4,35.7,35.7,35.1,35.7,34.3z M27.1,17.1c0-0.8-0.3-1.5-0.8-2 c-0.6-0.6-1.2-0.8-2-0.8c-0.8,0-1.5,0.3-2,0.8c-0.6,0.6-0.8,1.2-0.8,2s0.3,1.5,0.8,2c0.6,0.6,1.2,0.8,2,0.8c0.8,0,1.5-0.3,2-0.8 C26.8,18.6,27.1,17.9,27.1,17.1z M35.7,10V4.3c0-0.4-0.1-0.7-0.4-1c-0.3-0.3-0.6-0.4-1-0.4H5.8C5.4,2.9,5,3,4.8,3.3 c-0.3,0.3-0.4,0.6-0.4,1V10c0,0.4,0.1,0.7,0.4,1c0.3,0.3,0.6,0.4,1,0.4h28.5c0.4,0,0.7-0.1,1-0.4C35.5,10.7,35.7,10.4,35.7,10z  M35.7,17.1c0-0.8-0.3-1.5-0.8-2c-0.6-0.6-1.2-0.8-2-0.8c-0.8,0-1.5,0.3-2,0.8c-0.6,0.6-0.8,1.2-0.8,2s0.3,1.5,0.8,2 c0.6,0.6,1.2,0.8,2,0.8c0.8,0,1.5-0.3,2-0.8C35.4,18.6,35.7,17.9,35.7,17.1z M38.5,2.9v34.3c0,0.8-0.3,1.4-0.8,2 c-0.6,0.6-1.2,0.8-2,0.8H4.3c-0.8,0-1.4-0.3-2-0.8c-0.6-0.6-0.8-1.2-0.8-2V2.9c0-0.8,0.3-1.4,0.8-2S3.6,0,4.3,0h31.3 c0.8,0,1.4,0.3,2,0.8C38.2,1.4,38.5,2.1,38.5,2.9 Z"/>
</svg>
