<svg version="1.1" viewBox="0 0 40 40" xmlns="http://www.w3.org/2000/svg" fill="currentColor">
	<path d="M31.6,36.7h3.3v-3.3h-3.3V36.7z M31.6,30h3.3v-3.3h-3.3V30z M31.6,23.4h3.3V20h-3.3V23.4z M25,36.7h3.3v-3.3H25V36.7z M25,30h3.3v-3.3H25V30z M25,23.4h3.3V20H25V23.4z M18.3,36.7h3.3v-3.3h-3.3V36.7z M18.3,30h3.3v-3.3h-3.3V30z M18.3,23.4h3.3V20 h-3.3V23.4z M11.7,36.7H15v-3.3h-3.3V36.7z M11.7,30H15v-3.3h-3.3V30z M11.7,23.4H15V20h-3.3V23.4z M5.1,36.7h3.3v-3.3H5.1V36.7z M5.1,30h3.3v-3.3H5.1V30z M5.1,23.4h3.3V20H5.1V23.4z M38.2,13.3v25c0,0.5-0.2,0.9-0.5,1.2C37.4,39.9,37,40,36.5,40H3.5 c-0.5,0-0.9-0.2-1.2-0.5c-0.3-0.3-0.5-0.7-0.5-1.2v-25H38.2z M29.9,0h3.3c0.5,0,0.9,0.2,1.2,0.5c0.3,0.3,0.5,0.7,0.5,1.2v1.7h1.7 c0.5,0,0.9,0.2,1.2,0.5C38,4.1,38.2,4.5,38.2,5v5H1.8V5c0-0.5,0.2-0.9,0.5-1.2C2.6,3.5,3,3.3,3.5,3.3h1.7V1.7 c0-0.5,0.2-0.9,0.5-1.2S6.3,0,6.8,0h3.3c0.5,0,0.9,0.2,1.2,0.5c0.3,0.3,0.5,0.7,0.5,1.2v1.7h16.5V1.7c0-0.5,0.2-0.9,0.5-1.2 S29.5,0,29.9,0L29.9,0 Z"/>
</svg>
