<svg version="1.1" viewBox="0 0 40 40" xmlns="http://www.w3.org/2000/svg" fill="currentColor">
    <path d="M9.08332665,16.6973684 L9.08332665,31.9291785 C9.08213561,32.1468219 9.1689013,32.3558924 9.32428506,32.5097918 C9.47966882,32.6636911 9.69075595,32.7496279 9.91049854,32.7484483 L39.172816,32.7484483 C39.3925586,32.7496279 39.6036457,32.6636911 39.7590295,32.5097918 C39.9144132,32.3558924 40.0011789,32.1468219 39.9999879,31.9291785 L39.9999879,16.6973684 C40.0011789,16.479725 39.9144132,16.2706545 39.7590295,16.1167551 C39.6036457,15.9628558 39.3925586,15.876919 39.172816,15.8780986 L9.91049854,15.8780986 C9.69075595,15.876919 9.47966882,15.9628558 9.32428506,16.1167551 C9.1689013,16.2706545 9.08213561,16.479725 9.08332665,16.6973684 L9.08332665,16.6973684 Z M37.3334703,30.9121388 L24.5287605,30.9121388 C24.339052,30.9112939 24.1553824,30.845991 24.0084427,30.7271424 C20.7147503,28.112174 18.8007281,24.1553738 18.8070435,19.9744473 C18.8049159,19.4534107 18.8361085,18.9327636 18.9004339,18.4156325 C18.9556306,18.0035136 19.3078989,17.6940029 19.7276058,17.6888609 L37.3472565,17.6888609 C37.5669991,17.6876813 37.7780863,17.7736181 37.93347,17.9275174 C38.0888538,18.0814168 38.1756195,18.2904873 38.1744284,18.5081307 L38.1744284,30.066441 C38.1725762,30.5277152 37.7991161,30.9030845 37.3334703,30.9116984 L37.3334703,30.9121388 Z M5.37483933,25.6014209 C4.86700651,25.6002093 4.45569974,25.1926349 4.45472178,24.689653 L4.45472178,13.0247495 C4.45424914,12.5621187 4.63959186,12.1183014 4.96987672,11.7911718 C5.30016158,11.4640422 5.74825962,11.2804701 6.21535271,11.2809383 L32.9850366,11.2809383 C33.4933263,11.2809383 33.9053765,11.6890521 33.9053765,12.192486 C33.9053765,12.6959199 33.4933263,13.1040337 32.9850366,13.1040337 L6.30874308,13.1040337 L6.30874308,24.663225 C6.30831568,25.1760649 5.89256766,25.5937237 5.37483933,25.6014209 Z M0.920118452,21.5588093 C0.412285625,21.5575976 0.00097885798,21.1500233 9.01766356e-07,20.6470414 L9.01766356e-07,8.99535188 C-0.000471745285,8.53272103 0.184870983,8.08890378 0.515155843,7.7617742 C0.845440703,7.43464462 1.29353874,7.25107251 1.76063183,7.25154065 L29.2623184,7.25154065 C29.7706081,7.25154065 30.1826583,7.65965445 30.1826583,8.16308835 C30.1826583,8.66652224 29.7706081,9.07463605 29.2623184,9.07463605 L1.8540222,9.07463605 L1.8540222,20.6338273 C1.85557287,20.8796154 1.75767775,21.1157816 1.58219955,21.2895834 C1.40672136,21.4633852 1.16827725,21.5603451 0.920118452,21.5588093 Z M36.2648176,24.3196602 C36.2703714,22.8360524 35.6806468,21.4110253 34.6253788,20.3580737 C33.5701108,19.3051221 32.135743,18.7105001 30.6378252,18.7050197 C27.5186107,18.6936076 24.9806433,21.1888152 24.9691069,24.278231 C24.9575704,27.3676469 27.4768336,29.88138 30.5960479,29.8928203 C33.7152623,29.9042606 36.2532527,27.409076 36.2648176,24.3196602 Z M30.3056223,21.3998005 L30.3056223,22.4177211 C30.0121539,22.3544245 29.7125282,22.3234039 29.4121877,22.3252229 C29.2080377,22.319424 29.0045461,22.3507758 28.811821,22.4177211 C28.8002567,22.4786798 28.7957803,22.5407498 28.7984795,22.6027175 C28.8187054,23.0106496 28.8904176,23.4144688 29.0119432,23.8047536 L30.3189638,23.8047536 L30.3189638,24.5975953 L29.198724,24.5975953 C29.2330763,25.1538968 29.0066722,25.6948379 28.5850158,26.0639119 L30.3323052,26.0639119 L30.3323052,27.0016675 C29.5706577,27.061086 28.8067022,26.9197542 28.1180639,26.5920326 C27.7749445,26.789181 27.4007412,26.9276641 27.0111656,27.0016675 L26.9978241,26.1956117 C27.5413697,25.9980318 27.8776973,25.4575853 27.8116545,24.8878634 C27.8123913,24.7815722 27.8034609,24.6754312 27.7849716,24.5707268 L26.9444582,24.5707268 L26.9177752,23.7778851 L27.5581664,23.7778851 C27.4692587,23.4951801 27.4198807,23.2017423 27.4114101,22.9057592 C27.3980686,21.9019336 27.9850938,21.2940883 29.3588218,21.2940883 C29.6769412,21.3017573 29.9937627,21.3371311 30.3056223,21.3998005 Z M31.1194527,21.3998005 L31.1158949,21.400241 C31.4292227,21.3445145 31.745242,21.3048197 32.0626955,21.2813147 C33.4364234,21.2813147 34.0234486,21.88916 34.0101071,22.8929857 C34.0005983,23.1888681 33.9512434,23.4821683 33.8633508,23.7651115 L34.5072997,23.7651115 L34.4806167,24.5579532 L33.6401034,24.5579532 C33.6222569,24.6627387 33.6133311,24.768824 33.6134204,24.8750899 C33.5415948,25.4460722 33.8799697,25.9898086 34.4272508,26.1828382 L34.4139093,26.9888939 C34.0236943,26.9171609 33.6491101,26.7785368 33.307011,26.579259 C32.6183794,26.9070007 31.8544184,27.0483336 31.0927697,26.9888939 L31.0927697,26.0511384 L32.8400592,26.0511384 C32.4285948,25.6749398 32.2042908,25.1390163 32.226351,24.5848217 L31.1061112,24.5848217 L31.1061112,23.79198 L32.4135764,23.79198 C32.535102,23.4016952 32.6068143,22.997876 32.6270402,22.589944 C32.6292446,22.5279841 32.6247722,22.465968 32.6136987,22.4049476 C32.4194143,22.3443756 32.2170129,22.3131917 32.013332,22.3124494 C31.7128429,22.3105979 31.4130662,22.3416187 31.1194527,22.4049476 L31.1194527,21.3998005 Z"/>
</svg>
