<svg version="1.1" viewBox="0 0 40 40" xmlns="http://www.w3.org/2000/svg" fill="currentColor">
	<path d="M26.2,17.7H13.6c-0.5,0-0.7,0.2-0.7,0.7l0.2,0.5l5.6,5.4c0.2,0.2,0.7,0.5,1.2,0.5s0.7-0.2,1.2-0.5l5.6-5.6l0.2-0.5 C26.9,17.9,26.4,17.7,26.2,17.7 M19.9,35.9c-4,0-8.2-1.6-11.2-4.7S4,24,4,20s1.6-8.2,4.7-11.2s7.3-4.7,11.2-4.7s8.2,1.6,11.2,4.7 S35.8,16,35.8,20s-1.6,8.2-4.7,11.2S23.9,35.9,19.9,35.9 M19.9,0.1C8.9,0.1,0,9,0,20s8.7,19.6,19.6,19.9h0.7C31.1,39.6,40,31,40,20 C39.8,9,30.9,0.1,19.9,0.1 Z"/>
</svg>
