<svg version="1.1" viewBox="0 0 40 40" xmlns="http://www.w3.org/2000/svg" fill="currentColor">
	<path d="M25.3,14.7c-1.5-1.5-3.2-2.2-5.3-2.2c-2.1,0-3.8,0.7-5.3,2.2c-1.5,1.5-2.2,3.2-2.2,5.3s0.7,3.8,2.2,5.3 c1.5,1.5,3.2,2.2,5.3,2.2c2.1,0,3.8-0.7,5.3-2.2c1.5-1.5,2.2-3.2,2.2-5.3S26.8,16.2,25.3,14.7 M20,0c0.8,0,1.6,0.1,2.6,0.2l1.3,5.3 l0.2,0c1.1,0.3,2.2,0.8,3.3,1.4L27.5,7l4.7-2.8c1.4,1.1,2.6,2.3,3.6,3.7L33,12.5l0.1,0.2c0.6,1,1,2.1,1.4,3.2l0,0.2l5.3,1.3 c0.1,1,0.2,1.8,0.2,2.5c0,0.8-0.1,1.6-0.2,2.6l-5.3,1.3l0,0.2c-0.4,1.1-0.8,2.2-1.4,3.2L33,27.5l2.8,4.7c-1.1,1.4-2.3,2.6-3.6,3.7 L27.5,33l-0.2,0.1c-1,0.6-2.1,1-3.3,1.4l-0.2,0.1l-1.3,5.3c-1,0.1-1.9,0.2-2.6,0.2c-0.8,0-1.6-0.1-2.6-0.2l-1.3-5.3l-0.2-0.1 c-1.1-0.3-2.2-0.8-3.3-1.4L12.5,33l-4.7,2.8c-1.4-1.1-2.6-2.3-3.6-3.7L7,27.5l-0.1-0.2c-0.6-1-1-2.1-1.3-3.2l-0.1-0.2l-5.3-1.3 C0.1,21.6,0,20.7,0,20c0-0.8,0.1-1.6,0.2-2.5l5.3-1.3l0.1-0.2c0.3-1.1,0.7-2.2,1.3-3.2L7,12.5L4.2,7.8c1.1-1.4,2.3-2.6,3.7-3.7 L12.5,7l0.2-0.1c1-0.6,2.1-1,3.3-1.4l0.2,0l1.3-5.3C18.4,0.1,19.3,0,20,0 Z"/>
</svg>
