<svg version="1.1" viewBox="0 0 40 40" xmlns="http://www.w3.org/2000/svg" fill="currentColor">
	<path d="M25.8,20.6c-0.4-0.4-0.4-0.9,0-1.3L39.5,5.7C39.9,5.3,40,4.8,40,4.4c0-0.4-0.1-0.9-0.5-1.3L37,0.6 c-0.4-0.4-0.9-0.5-1.3-0.5c-0.5,0-0.9,0.1-1.3,0.5L20.6,14.2c-0.4,0.4-0.9,0.4-1.3,0L5.7,0.5C5.3,0.1,4.8,0,4.4,0 C4,0,3.5,0.1,3.1,0.5L0.6,3C0.3,3.4,0.1,3.9,0.1,4.3s0.1,0.9,0.5,1.3l13.7,13.7c0.4,0.4,0.4,0.9,0,1.3L0.5,34.4 C0.1,34.7,0,35.2,0,35.6c0,0.4,0.1,0.9,0.5,1.3L3,39.4c0.4,0.4,0.9,0.5,1.3,0.5s0.9-0.1,1.3-0.5l13.7-13.7c0.4-0.4,0.9-0.4,1.3,0 l13.7,13.7c0.4,0.4,0.9,0.5,1.3,0.5s0.9-0.1,1.3-0.5l2.5-2.5c0.4-0.4,0.5-0.9,0.5-1.3s-0.1-0.9-0.5-1.3L25.8,20.6 Z"/>
</svg>
