<svg version="1.1" viewBox="0 0 40 40" xmlns="http://www.w3.org/2000/svg" fill="currentColor">
    <path d="M6.6844438,27.9209968 L8.15503383,30.1010141 L5.61710916,30.1010141 C5.37205748,30.5916893 5.1401657,31.0732251 4.95214804,31.5328238 C3.55953054,32.8458632 2.36585839,33.4029102 1.37113159,33.2039648 C-0.0612749842,33.0851944 -0.240325807,31.2946862 0.237143053,30.279468 C1.66954963,26.4597172 3.28100703,22.6996499 4.77309722,18.879899 C3.46005786,16.6119219 2.44543653,13.866476 3.46005786,11.3000809 C4.65373001,7.12222834 9.66715303,4.85425126 13.5465875,6.58507587 C16.3517171,7.48032999 18.0228581,10.2854595 18.5600105,13.0309055 C17.2469712,13.0309055 15.8742482,13.0309055 14.5612088,12.9712219 C13.9643728,10.7032448 11.2786104,9.2111546 9.13000057,10.4048268 C6.50392184,11.5984989 6.56360544,15.8957186 9.18968417,16.9700236 C10.3236727,17.6862269 11.6367121,17.3281252 12.7707006,16.7909728 C14.4418416,16.0150859 16.2920335,16.3731875 18.0825417,16.3731875 C16.8291859,19.5961023 13.3078531,21.3269269 9.84620385,21.0881925 L9.42639712,21.8933694 L10.8980131,24.2514237 L8.09777731,24.3361329 L7.81576559,24.925269 C9.02385783,26.4091561 9.62790395,27.1510997 9.62790395,27.1510997 C9.62790395,27.1510997 8.72583833,27.2190569 6.92170709,27.3549713 C6.84864389,27.5416883 6.76895534,27.7306139 6.6844438,27.9209968 Z M26.1995123,14.0455268 C24.7074221,13.8067924 23.2153319,13.7471088 21.7232417,13.5083743 C22.0813434,13.0309055 22.7975467,12.0162842 23.1556483,11.5388153 C27.6916025,11.6581825 32.2275567,12.3147022 36.7635108,12.6131202 C37.7781321,12.6131202 39.3305028,13.0309055 39.0911715,14.4036285 C39.2105387,16.5522383 36.7635108,16.1344531 35.3907878,16.0150859 C36.8231944,18.9992662 38.7336667,21.745309 39.9273389,24.8482598 C40.5241749,27.5937057 37.3006633,28.3695926 35.5101551,29.4438975 C34.2567993,27.2356041 33.1824944,24.8482598 31.7500878,22.6996499 C29.9595796,20.7897745 26.3188795,22.9389812 27.15445,25.4450958 C28.1093877,27.7727565 29.4821107,29.8616828 30.6160993,32.1296599 C28.7659074,33.1442812 26.1398287,35.1741207 24.2896369,33.0851944 C22.6781795,30.3391516 21.2457729,27.4152517 19.7536827,24.6095253 C19.1568466,25.3854122 18.6793778,26.2215796 18.0228581,26.937186 C16.8888695,27.5340221 14.9193105,26.2215796 15.5758302,24.9079434 C16.9485531,22.043727 18.5600105,19.2976843 20.0521007,16.4925547 C20.8279876,16.6119219 21.6635581,16.7312891 22.4991286,16.8506564 C23.1556483,17.9846449 24.1702696,19.2976843 25.6623598,18.8202154 C28.0497041,18.581481 28.3481222,14.8810973 26.1995123,14.0455268 Z M14.7402597,15.7166678 C13.4869039,16.1344531 12.7707006,14.8810973 13.4272203,13.8067924 C17.2469712,13.3293235 21.1860893,13.5680579 24.8864729,14.8214137 C26.0801451,14.9407809 25.781727,17.3281252 24.5283713,16.7909728 C21.3054565,16.0150859 18.0228581,15.5973006 14.7402597,15.7166678 Z"/>
</svg>
