<svg version="1.1" viewBox="0 0 40 40" xmlns="http://www.w3.org/2000/svg" fill="currentColor">
	<path d="M32.1,19.3c-0.1-4-1.5-7.4-4.2-10.1C25.3,6.5,21.9,5.1,17.9,5c-4.1,0.1-7.5,1.5-10.2,4.2C5,11.9,3.6,15.2,3.5,19.3 c0.1,4,1.5,7.4,4.2,10.1c2.7,2.7,6.1,4.1,10.2,4.2c4-0.1,7.4-1.5,10.1-4.2C30.7,26.7,32,23.3,32.1,19.3 M39.9,36.2 c0,0.6-0.2,1.2-0.7,1.6c-0.5,0.5-1,0.7-1.6,0.7c-0.6,0-1.2-0.2-1.6-0.7l-5.8-5.7v-0.1c-1.6,1.6-3.5,2.8-5.6,3.7 c-2.1,0.9-4.3,1.3-6.7,1.3c-5.1-0.1-9.3-1.9-12.7-5.2S0.1,24.3,0,19.3C0.1,14.2,1.9,10,5.2,6.7s7.6-5.1,12.7-5.2 c5.1,0.1,9.3,1.9,12.6,5.2c3.3,3.3,5.1,7.5,5.2,12.6c0,3.4-0.9,6.5-2.6,9.3l6.1,6C39.7,35,39.9,35.6,39.9,36.2 Z"/>
</svg>
