<svg version="1.1" viewBox="0 0 40 40" xmlns="http://www.w3.org/2000/svg" fill="currentColor">
	<path d="M22.5,32.5c-0.7-0.7-1.5-1-2.5-1c-1,0-1.8,0.3-2.5,1c-0.7,0.7-1,1.5-1,2.5c0,1,0.3,1.8,1,2.5c0.7,0.7,1.5,1,2.5,1 c1,0,1.8-0.3,2.5-1c0.7-0.7,1-1.5,1-2.5C23.5,34,23.1,33.2,22.5,32.5L22.5,32.5z M10,30h20V6.7H10V30z M14.7,0.5 C16.4,0.2,18.2,0,20.1,0c1.9,0,3.7,0.2,5.4,0.5c1.7,0.3,3.1,0.8,4.2,1.3c1.1,0.5,2,1,2.6,1.6c0.6,0.6,1,1.1,1,1.5v31.8 c0,0.9-0.3,1.7-1,2.3c-0.7,0.7-1.4,1-2.3,1H10c-0.9,0-1.7-0.3-2.4-1c-0.7-0.7-1-1.4-1-2.3V4.9c0-0.5,0.3-1,1-1.6 c0.7-0.6,1.6-1.1,2.7-1.6C11.5,1.2,12.9,0.8,14.7,0.5L14.7,0.5 Z"/>
</svg>
