<svg version="1.1" viewBox="0 0 40 40" xmlns="http://www.w3.org/2000/svg" fill="currentColor">
    <path d="M36.0429678,28.2308525 C35.2475643,29.0022483 34.2543093,29.3869598 33.0691981,29.3869598 C31.8820884,29.3553937 30.8908319,28.9548992 30.0934299,28.1854763 C29.2980265,27.4140805 28.8843367,26.4592069 28.8523607,25.3169098 C28.8523607,24.5474868 29.0562078,23.8530333 29.4619036,23.237495 C29.8675993,22.6199837 30.3992006,22.1425469 31.054709,21.8032117 C31.4604047,22.4503161 31.8281289,23.0441528 32.1558831,23.5847217 C32.4836373,24.1233178 32.7414439,24.4705445 32.9273045,24.6244291 C33.5208594,24.9933575 33.8805896,25.0091406 34.0044966,24.6698053 C34.1304022,24.3304701 34.1763677,24.1154263 34.1463902,24.0227009 L32.5535848,21.3415579 L33.0691981,21.3415579 C34.2543093,21.3711511 35.2475643,21.765727 36.0429678,22.5193669 C36.8383712,23.2749797 37.2380714,24.2239346 37.2380714,25.3642589 C37.2380714,26.5045831 36.8383712,27.4594567 36.0429678,28.2308525 L36.0429678,28.2308525 Z M7.63427429,24.3462531 L7.63427429,25.8259126 L9.46090432,26.3822646 L9.78865851,27.8619241 L10.2583063,27.814575 C9.50886835,28.4005201 8.63352486,28.6925063 7.63427429,28.6925063 C6.51111666,28.6629131 5.58181364,28.2999033 4.84836373,27.6074226 C4.11291531,26.9129691 3.74718961,26.0271463 3.74718961,24.9479813 C3.74718961,23.8688163 4.11291531,22.975102 4.84836373,22.2668383 C5.58181364,21.5566018 6.51111666,21.1876733 7.63427429,21.1561073 C8.69547839,21.1876733 9.58680989,21.5112256 10.3042718,22.1267639 L10.0224831,23.6991487 L7.58830877,24.0227009 L7.63427429,24.3462531 Z M37.9635274,20.8088805 C36.6665001,19.591614 35.0517112,18.9524011 33.1151636,18.8912418 C32.4596553,18.8912418 31.8201349,18.9839672 31.194604,19.1674449 L30.5390957,18.0113377 C30.9767674,17.4569586 31.4284287,17.2498062 31.8980764,17.3879078 C32.3657257,17.5260093 32.6155383,17.6266262 32.6475144,17.6877854 L32.9752685,18.2895136 L33.5848114,18.2895136 L33.2550587,17.1334064 L34.4261804,16.5316782 L34.7539345,16.208126 C35.6912316,15.2532524 35.9650262,14.5055311 35.5753185,13.9669351 C35.1836123,13.4263661 34.9118161,13.1107054 34.7539345,13.0179801 C34.691981,12.9568208 34.5900575,12.8956616 34.4501624,12.8325294 C34.3102673,12.7713702 34.2083437,12.725994 34.1463902,12.6944279 C34.0844367,12.6628618 33.9745191,12.6628618 33.818636,12.6944279 L33.5848114,12.6944279 L32.9752685,12.3708757 L33.3030227,11.4929444 L32.9273045,11.35287 L32.3657257,10.7984909 L31.4284287,10.1967627 L30.257307,9.04065541 L29.0402198,8.48627632 L26.5580814,8.16272411 L25.2930302,8.25544944 C24.5435923,8.3166087 24.059955,8.39355099 23.8421184,8.48627632 C23.7481889,8.54743558 23.6222833,8.61056772 23.4664002,8.67172697 L23.1846115,8.80982853 L22.8568574,9.6897327 L23.1846115,10.6130402 L25.3409943,10.6130402 L27.1676243,10.9365924 L28.0569573,11.2147684 L29.2280789,12.3708757 L29.415938,13.3888814 L28.9942543,13.9432605 L27.1676243,13.9432605 L26.2303273,13.3415323 L25.3409943,13.0179801 L23.5123657,12.6944279 L20.7504372,12.6944279 L19.5313515,13.0179801 L18.596053,13.6197083 L17.7047215,14.3121889 L16.7674244,15.3301947 L16.2058456,15.8845737 L15.5503372,17.040681 L15.2225831,16.9953048 C11.1936048,14.8685409 7.73619785,14.3200805 4.84836373,15.3538692 C1.9585311,16.3856851 0.451661254,17.0564641 0.327754184,17.3642332 L-4.54747351e-13,18.8438927 L0.655508369,20 L0.795403447,19.8618984 C1.6087934,19.2759533 2.40419685,18.7827335 3.18561079,18.382239 L4.35673245,19.6764478 L5.19810142,19.1220687 L4.16887334,17.8732361 C5.76167874,17.1945656 7.18261304,16.8867964 8.43167624,16.9479557 C9.68073945,17.0110878 10.7419435,17.2576978 11.6152885,17.6877854 L10.3522358,19.3075194 L10.4921309,19.4909971 C9.64876343,19.0905026 8.69547839,18.8754588 7.63427429,18.8438927 C5.82363228,18.8754588 4.31676243,19.4614039 3.11366475,20.6017282 C1.91256558,21.7420524 1.27904072,23.1901459 1.21708718,24.9479813 C1.27904072,26.6426847 1.91256558,28.0532934 3.11366475,29.1778346 C4.31676243,30.3043487 5.82363228,30.8981853 7.63427429,30.9593446 C9.22707969,30.9277785 10.5860605,30.4661248 11.7092181,29.5724104 C12.8343742,28.6786961 13.5838121,27.536399 13.9575319,26.1494648 C13.7396952,26.2737562 13.5198601,26.3349155 13.3020235,26.3349155 C12.8963278,26.3349155 12.5765676,26.1810309 12.3427429,25.8732617 C12.1069198,25.5635197 11.9910067,25.1413235 11.9910067,24.6007546 C11.9910067,24.0621585 12.1309018,23.6222064 12.4126905,23.2828712 C12.6924806,22.9435359 13.0202348,22.7738683 13.395953,22.7738683 C13.5518361,22.7442751 13.6617537,22.7600582 13.7237072,22.8212174 C13.4738946,22.1425469 13.1061704,21.5270086 12.6225331,20.9706566 C12.1388958,20.4162775 11.585311,19.9704068 10.9597802,19.6310716 L12.1788659,17.9659614 L12.1309018,17.8732361 C13.0062453,18.398022 13.6617537,18.9129435 14.0994254,19.4219464 C14.5350987,19.9309492 14.7689233,20.2170167 14.8008993,20.278176 L15.034724,22.959319 L14.5191107,23.2828712 L14.5191107,23.3755965 C14.301274,23.0678273 14.0674494,22.8665936 13.8176368,22.7738683 C14.0674494,23.4209727 14.1913565,24.0996432 14.1913565,24.8098798 C14.1913565,25.2399675 14.145391,25.656245 14.0514614,26.0567395 C14.177367,26.0271463 14.285286,25.950204 14.3792156,25.8259126 L14.3792156,26.0113633 L23.1846115,26.0567395 C23.3424931,24.1765855 23.8421184,22.6278752 24.6834874,21.4106087 C25.5268549,20.1933422 26.2463153,19.3371126 26.8398701,18.8438927 C27.2455658,18.5676896 27.7292031,18.4670728 28.2907819,18.5440151 C28.8523607,18.6209574 29.1661254,18.6742251 29.2280789,18.7057912 L29.8376218,19.6764478 C28.7444417,20.2308269 27.8770922,21.0101142 27.2375718,22.0123369 C26.596053,23.0125867 26.2603048,24.1312093 26.2303273,25.3642589 C26.2922808,27.2128468 26.9637772,28.7477469 28.2448164,29.9650134 C29.5238571,31.18228 31.1486385,31.8057098 33.1151636,31.8372759 C35.0836872,31.8057098 36.7064701,31.18228 37.9875094,29.9650134 C39.2665501,28.7477469 39.9380465,27.2128468 40,25.3642589 C39.9380465,23.5452641 39.2585561,22.0261471 37.9635274,20.8088805 L37.9635274,20.8088805 Z"/>
</svg>
