<svg version="1.1" viewBox="0 0 40 40" xmlns="http://www.w3.org/2000/svg" fill="currentColor">
	<path d="M0.6,6.9l1,0c0.9,2-0.4,4.6,1.3,6.3c0.2-1.9,0-3.8,0.2-5.7C3.3,6.8,3.8,6.7,4.5,7C5,9,4.6,11.2,4.9,13.3 c1.5-1.6,0.7-3.9,1-5.8c0.2-0.8,1.6-0.8,1.6,0c0.2,1.9,0.2,3.8,0.1,5.7c0.2,2.5-3,3.7-2.6,6.3c0.4,3.6,1.7,7.2,0.9,10.8 c-0.3,1.1-1,2.5-2.3,2.4c-1.6-1.1-1.9-3.2-1.9-5c0-2.8,0.9-5.5,1.1-8.3c0.3-2.6-2.9-3.7-2.6-6.3C0.2,11.1-0.4,8.7,0.6,6.9z  M35.2,9.8c0.6-1.6,2-2.8,3.7-3.1c0.6,5.9-0.4,12,0.8,17.9c0.3,2.5,0.8,5.4-0.9,7.5c-1,1.3-2.6,0-2.9-1.3c-1-3.2,0-6.7,0.7-9.9 c-0.9-0.7-2-1.4-2-2.8C34.3,15.4,34.3,12.5,35.2,9.8z M9.4,13.7c2.1-3.9,6-6.5,10.3-6.7C24,6.9,28.1,9,30.6,12.7 c3.2,4.9,2.3,12.1-1.9,16.2c-0.6-0.6-1.2-0.8-1.7-1.4c1.2-1.6,2.6-3.7,2.9-5.7c1.2-5.5-2.9-11.6-8.3-12.2c-5.3-1-10.7,3.5-11.1,9.1 c-0.6,4.9,2.7,9.7,7.2,10.9c3.3,1.1,6.8-0.2,9.4-2.4c0.6,0.5,1.2,1.1,1.8,1.7c-5,5.5-14.6,4.7-18.6-1.6C7.5,23.4,7.2,18.1,9.4,13.7 L9.4,13.7z M18.9,12.1c4.3-1,8.9,2.7,9,7.3c0.4,4.6-3.6,8.8-8,8.4c-4.1-0.1-7.4-4.2-7.1-8.4C13,15.8,15.5,12.8,18.9,12.1L18.9,12.1 Z"/>
</svg>
