<svg version="1.1" viewBox="0 0 40 40" xmlns="http://www.w3.org/2000/svg" fill="currentColor">
	<path d="M34.4,0.7c1.1-1.2,4.1-0.8,4.8,0.7c0.5,1,1.2,3.3,0.4,4.1c-3,3.2-7,7.5-9.9,10.7c1.6,7,3.4,13.1,5.1,20.1 c-1.1,1.2-2.3,2.4-3.4,3.7c-2.9-5.9-6.7-10.8-9.6-16.7c-2,2.2-4,3.3-6,5.4c-0.3,0.3-0.8,0.7-0.6,1.2c0.2,1.7-0.7,3.4-0.5,5.1 c-0.9,0.9-1.8,1.9-2.7,2.8c-1.1-2.2-1-4.4-2.2-6.4c-1.9-1.2-4.9-1.2-6.8-2.3c0.9-0.9,1.8-1.8,2.6-2.8c1.8,0.1,4.6-0.6,6.3-0.4 c2.2-2.4,3.4-5.8,5.7-8.1C12.1,14.5,5.4,12.6,0,9.3c1-1.3,2-3.5,3.2-4.6c6.7,1.9,14.5,4.8,21.2,6.7C27.5,8.2,31.4,3.9,34.4,0.7 Z"/>
</svg>
