<svg version="1.1" viewBox="0 0 40 40" xmlns="http://www.w3.org/2000/svg" fill="currentColor">
	<path d="M9.2,35.4h21.5v-6.2H9.2V35.4z M9.2,20h21.5v-9.2h-3.8c-0.6,0-1.2-0.2-1.6-0.7c-0.5-0.5-0.7-1-0.7-1.6V4.6H9.2V20z M36.9,21.5c0-0.4-0.1-0.8-0.4-1.1c-0.3-0.3-0.7-0.4-1.1-0.5c-0.5,0-0.8,0.1-1.1,0.5c-0.3,0.3-0.4,0.7-0.4,1.1 c0,0.4,0.1,0.7,0.4,1.1c0.3,0.3,0.7,0.5,1.1,0.4c0.4-0.1,0.8-0.2,1.1-0.4S37,22,36.9,21.5z M40,21.5v10c0,0.2-0.1,0.4-0.3,0.5 c-0.2,0.1-0.3,0.2-0.5,0.3h-5.4v3.8c0,0.6-0.2,1.2-0.7,1.6c-0.5,0.5-1,0.7-1.6,0.7H8.4c-0.6,0-1.2-0.2-1.6-0.7s-0.7-1-0.7-1.6v-3.8 H0.8c-0.2,0-0.4-0.1-0.6-0.3C0,31.9,0,31.7,0,31.5v-10c0-1.3,0.5-2.4,1.4-3.3c0.9-0.9,2-1.4,3.2-1.3h1.5V3.9c0-0.6,0.2-1.2,0.7-1.6 s1-0.7,1.6-0.7h16.1c0.7,0,1.4,0.2,2.2,0.5c0.8,0.3,1.4,0.7,1.8,1.1l3.7,3.7c0.4,0.5,0.8,1.1,1.2,1.9s0.5,1.5,0.5,2.1v6.2h1.5 c1.3,0,2.4,0.4,3.3,1.3C39.5,19.2,40,20.3,40,21.5 Z"/>
</svg>
