<svg version="1.1" viewBox="0 0 40 40" xmlns="http://www.w3.org/2000/svg" fill="currentColor">
	<path d="M20,5.5C8.9,5.5,0,11.7,0,19.1c0,3,1.4,5.7,3.8,8v7.3l4.3-4.4c3.3,1.6,7.4,2.7,11.9,2.7c11.1,0,20-6.2,20-13.6 S31.1,5.5,20,5.5L20,5.5z M12.2,21.7c-1.4,0-2.6-1.1-2.6-2.6c0-1.4,1.1-2.6,2.6-2.6c1.4,0,2.6,1.1,2.6,2.6 C14.8,20.6,13.6,21.7,12.2,21.7z M20,21.7c-1.4,0-2.6-1.1-2.6-2.6c0-1.4,1.1-2.6,2.6-2.6c1.5,0,2.6,1.1,2.6,2.6 C22.6,20.6,21.4,21.7,20,21.7z M27.8,21.7c-1.4,0-2.6-1.1-2.6-2.6c0-1.4,1.1-2.6,2.6-2.6c1.4,0,2.6,1.1,2.6,2.6 C30.3,20.6,29.1,21.7,27.8,21.7 Z"/>
</svg>
