<svg version="1.1" viewBox="0 0 40 40" xmlns="http://www.w3.org/2000/svg" fill="currentColor">
	<path d="M10,35.5c0,0,0,0.8,0,2.8c0,2-2.8,1.8-2.8,1.8c-3.6,0-3.1-1.8-3.1-1.8v-3.1c0,0-1.1-1.3-2-2.1c-2.8-2.2-2-4.5-2-6.8 c0-2.4,1.7-4.6,1.7-4.6s3.3-7.7,4.9-10C8.2,9.2,11,9,11,9h16.4c0,0,2.7,0.1,4.3,2.5c1.5,2.4,4.9,10,4.9,10s1.7,2.2,1.7,4.6 s0.7,4.6-2,6.8c-1,0.8-2,2.1-2,2.1v3.1c0,0,0.5,1.8-3.1,1.8c0,0-2.8,0.2-2.8-1.8s0-2.8,0-2.8L10,35.5L10,35.5z M18.7,21.8h12 c2.7,0,1.9-1.5,1.9-1.5s-1.8-5.7-3-7.7c-1.2-2-3.6-2-3.6-2H11.4c0,0-2.5,0-3.6,2s-3,7.7-3,7.7S4,21.8,6.7,21.8S18.8,21.8,18.7,21.8 L18.7,21.8z M6.9,28.2c0,1.8,1.4,3.2,3.1,3.2s3.1-1.4,3.1-3.2c0-1.8-1.4-3.2-3.1-3.2S6.9,26.4,6.9,28.2L6.9,28.2z M25.1,28.2 c0,1.8,1.4,3.2,3.1,3.2c1.7,0,3.1-1.4,3.1-3.2c0-1.8-1.4-3.2-3.1-3.2C26.5,25,25.1,26.4,25.1,28.2L25.1,28.2z M39.9,10L39.9,10 c-0.9-4.8-2.7-6.5-5.6-8c-2.9-1.7-7.8-2.5-9-1.7l0,0c0,0.1-0.6,0.2-0.7,0.4c-0.2,0.4,0.3,1.1,0.7,1.3c0.2,0.1,0,0.1,1.2,0.1l0,0 c0-0.8,4.7-0.1,7.2,1.3c2.5,1.3,3.7,3.1,4.5,6.6h-0.1c0.1,0,0.2,0,0.4,0.1c0.4,0.2,1,0.6,1.3,0.1C40,10,40,9.9,39.9,10 C39.9,9.9,39.9,10,39.9,10z M31.7,6c-1.6-0.9-3.4-1.1-5-0.6c-0.3,0.1-0.5,0.2-0.6,0.4c-0.2,0.4-0.3,1.1,0.1,1.3 c0.2,0.1,0.4,0.1,0.4,0.1l0,0c2.3-0.3,2.7-0.2,3.8,0.4c1.2,0.7,2,1.7,2.3,2.9h0.1c0.1,0.2,0.2,0.4,0.5,0.7c0.4,0.2,1.1,0.1,1.3-0.4 c0.1-0.2,0.1-0.6,0.1-0.8C34.4,8.4,33.3,6.8,31.7,6L31.7,6z M37.4,10c-0.6-3.6-1.8-4.7-4.1-6.1s-6.7-1.9-6.7-1.1l0,0 c0,0.1-0.9,0.2-1,0.4c-0.2,0.4-0.3,1.1,0.2,1.3c0.2,0.1,0.4,0.1,0.6,0.1c1.8-0.6,3.7-0.3,5.6,0.7s3,2.6,3.5,4.5 c0.1,0.2,0.2,0.4,0.4,0.6c0.4,0.2,1.1,0.4,1.3,0C37.5,10.1,37.5,10,37.4,10L37.4,10 Z"/>
</svg>
