<svg version="1.1" viewBox="0 0 40 40" xmlns="http://www.w3.org/2000/svg" fill="currentColor">
	<path d="M23.4,10.9c1.9,0,3.9-0.1,5.8,0.1c0.6,0.1,2.6,2.9,3.8,4.5c0.2,0.2,0,0.7-1,0.7c-2.9,0-5.8,0-8.7,0 C23.3,16.2,23.5,12.6,23.4,10.9z M33.4,23.4c2.2,0,4.1,1.7,4.2,3.9c0.5,0,1-0.1,1.4-0.2c0.5,0,1-0.5,1-1.5c0-1.9,0-3.6,0-5.5 c-0.1-0.7-0.5-1.3-1.1-1.8c-1.1-0.9-2.2-1.7-3.3-2.5c-1.7-2-3.1-4.3-5-6.1c-0.5-0.5-1.3-0.7-2-0.6H2.1c-0.7,0.1-1.3,0.6-1.4,1.3 c0,4.1,0,8.2,0,12.2C0.3,22.7,0,23.1,0,23.5v2.1c0,1.5,0.8,1.4,1.2,1.4c1,0.1,2,0.3,3,0.4l0,0c0-1.1,0.5-2.1,1.2-2.9 c0.8-0.8,1.9-1.2,3-1.2c1.1,0,2.2,0.4,3,1.2c0.8,0.8,1.2,1.8,1.2,2.9c0,0.2,0,0.3,0,0.5c3.9,0,13.3,0,16.6,0c0-0.1,0-0.3,0-0.5 C29.2,25.2,31.1,23.4,33.4,23.4z M4.8,27.5c0,0.9,0.4,1.8,1.1,2.5c0.7,0.7,1.6,1,2.5,1c1.3,0,2.5-0.6,3.1-1.7 c0.7-1.1,0.7-2.5,0-3.5c-0.7-1.1-1.9-1.8-3.1-1.7c-0.9,0-1.9,0.3-2.5,1C5.2,25.6,4.8,26.5,4.8,27.5L4.8,27.5z M6.7,27.5 c0-0.7,0.4-1.3,1-1.6c0.6-0.3,1.4-0.1,1.9,0.3c0.5,0.5,0.7,1.2,0.4,1.9c-0.3,0.6-0.9,1.1-1.6,1.1C7.5,29.1,6.7,28.4,6.7,27.5 L6.7,27.5z M29.7,27.5c0,0.9,0.4,1.8,1.1,2.5c0.7,0.7,1.6,1,2.5,1c2,0,3.6-1.5,3.6-3.5c-0.1-1.9-1.7-3.5-3.6-3.5 S29.8,25.5,29.7,27.5L29.7,27.5z M31.6,27.5c0-0.7,0.4-1.3,1-1.6c0.6-0.3,1.4-0.1,1.9,0.3c0.5,0.5,0.7,1.2,0.4,1.9 c-0.3,0.6-0.9,1.1-1.6,1.1C32.4,29.1,31.6,28.4,31.6,27.5L31.6,27.5 Z"/>
</svg>
