<svg version="1.1" viewBox="0 0 40 40" xmlns="http://www.w3.org/2000/svg" fill="currentColor">
	<path d="M21.8,27.2c-0.1,2.1,0.5,4.6-0.9,6.4C19.5,35.4,9.3,35.4,8,33.5c-1.3-1.8-0.6-4.2-0.7-6.2C2.9,29.7,0.2,34.6,0,39.7 C1.3,39.9,2.7,40,4,40c0.2-0.4,0.7-1.2,0.9-1.6C5.8,38.9,6.6,40,7.8,40c4.4,0,8.9,0,13.3,0c1.3,0.2,2-1,2.9-1.7 c0.2,0.4,0.7,1.3,0.9,1.7c1.3-0.2,3.6,0.6,4-1.2C28.6,34,25.6,29.7,21.8,27.2z M9.9,13.3c-0.5,0.9-0.4,1.9,0.6,2.4 C12.1,15.3,11.6,12.5,9.9,13.3z M8.3,6.4C9.5,7.9,10.5,9.8,12,11c1.4,1.2,3.5,1.7,5.2,2.3c-0.3,3.5,2.4,3.6,2.1,0.3 c1.2,0.2,2.3,0.4,2.4,1.9c0.6-0.2,0.2,1.3-0.1,1.2c-1.2,2.2-2.1,4.8-4.4,6c-2.2,1.2-5,1-6.7-0.7c-2.7-2.7-2.7-3.8-3.1-5.8 C6.7,13.9,8,11.9,9,10C8.7,8.8,8.4,7.6,8.3,6.4z M7.2,3.5C5.6,6.1,5.1,8.1,5.2,11c-1,0.5,0.2,2.3-0.2,3.5c-0.8,2.4,0.1,7.1,0.4,7.7 c0.3,0.5,0.4,4.1-0.1,4.4c2.7,0.6,2.6-2.9,5.3-2.3c2.1,0.7,6.2,0.4,8.1-0.5c0.8,1.3,1.8,2.4,3.1,3.2c1.7-2.2-0.4-3.4,1.2-5.9 c1.9-3.2,0.1-6.4,0.1-8.8c0.1-3.7-0.2-8.2-3.3-10.6C16-1,9.8-0.5,7.2,3.5z M24.7,4.6v4.6c0,1.3,1,2.3,2.2,2.3h8.1l-2.2,2.3l4.9-2.3 c1.3,0,2.2-1,2.2-2.3V4.6c0-1.3-1-2.3-2.2-2.3H27C25.7,2.3,24.7,3.3,24.7,4.6 Z"/>
</svg>
